<?xml version="1.0" encoding="utf-8"?>
<!-- Generator: Adobe Illustrator 25.4.1, SVG Export Plug-In . SVG Version: 6.00 Build 0)  -->
<svg version="1.1" id="Layer_1" xmlns="http://www.w3.org/2000/svg" xmlns:xlink="http://www.w3.org/1999/xlink" x="0px" y="0px"
	 viewBox="0 0 95 95" enable-background="new 0 0 95 95" xml:space="preserve">
<path fill="none" stroke="#FFFFFF" stroke-width="2" stroke-linecap="round" stroke-linejoin="round" stroke-miterlimit="10" d="
	M84.5,70h-74c-4.42,0-8-3.58-8-8V10.5c0-4.42,3.58-8,8-8h74c4.42,0,8,3.58,8,8V62C92.5,66.42,88.92,70,84.5,70z M2.5,58.75h90
	 M69.3,85.47H25.7c-3.49,0-6.33,2.83-6.33,6.33l0,0c0,0.39,0.31,0.7,0.7,0.7h54.84c0.39,0,0.7-0.31,0.7-0.7l0,0
	C75.62,88.3,72.79,85.47,69.3,85.47z M39.06,70v15.47 M55.94,70v15.47 M48.91,42.58c17.68,0,25.71-11.25,25.71-11.25
	s-8.04-11.25-25.71-11.25S23.19,31.33,23.19,31.33S31.23,42.58,48.91,42.58z M48.91,20.08c-6.21,0-11.25,5.04-11.25,11.25
	s5.04,11.25,11.25,11.25s11.25-5.04,11.25-11.25S55.12,20.08,48.91,20.08z M48.91,26.51c-2.66,0-4.82,2.16-4.82,4.82
	s2.16,4.82,4.82,4.82s4.82-2.16,4.82-4.82S51.57,26.51,48.91,26.51z M30.62,20.08L25,14.45h-9.84 M13.05,12.34
	c-1.16,0-2.11,0.94-2.11,2.11s0.94,2.11,2.11,2.11s2.11-0.94,2.11-2.11S14.21,12.34,13.05,12.34z M67.19,42.58l5.62,5.62h9.84
	 M84.77,46.09c-1.16,0-2.11,0.94-2.11,2.11s0.94,2.11,2.11,2.11s2.11-0.94,2.11-2.11S85.93,46.09,84.77,46.09z M82.66,14.45h-9.84
	l-5.62,5.62 M86.88,14.45c0-1.16-0.94-2.11-2.11-2.11s-2.11,0.94-2.11,2.11s0.94,2.11,2.11,2.11S86.88,15.62,86.88,14.45z
	 M15.16,48.2H25l5.62-5.62 M10.94,48.2c0,1.16,0.94,2.11,2.11,2.11s2.11-0.94,2.11-2.11s-0.94-2.11-2.11-2.11
	S10.94,47.04,10.94,48.2z"/>
</svg>
