<?xml version="1.0" encoding="utf-8"?>
<!-- Generator: Adobe Illustrator 25.4.1, SVG Export Plug-In . SVG Version: 6.00 Build 0)  -->
<svg version="1.1" id="Layer_1" xmlns="http://www.w3.org/2000/svg" xmlns:xlink="http://www.w3.org/1999/xlink" x="0px" y="0px"
	 viewBox="0 0 68 68" enable-background="new 0 0 68 68" xml:space="preserve">
<g>
	<defs>
		<rect id="SVGID_1_" x="0" width="68" height="68"/>
	</defs>
	<clipPath id="SVGID_00000100376500055969336640000014399591012759707572_">
		<use xlink:href="#SVGID_1_"  overflow="visible"/>
	</clipPath>
	<g clip-path="url(#SVGID_00000100376500055969336640000014399591012759707572_)">
		
			<path fill="none" stroke="#FFFFFF" stroke-width="1.5" stroke-linecap="round" stroke-linejoin="round" stroke-miterlimit="10" d="
			M51.27,51.8c-3.9,2.83-8.76,4.42-14,4.17c-11.09-0.52-20.2-9.49-20.89-20.57C15.59,22.62,25.72,12,38.34,12
			c4.83,0,9.3,1.56,12.93,4.2c0.46,0.33,0.53,0.99,0.17,1.43l-4.5,5.6c-0.32,0.4-0.9,0.5-1.32,0.21c-2.52-1.74-5.7-2.6-9.09-2.14
			c-5.73,0.78-10.31,5.5-10.94,11.25c-0.86,7.74,5.18,14.29,12.75,14.29c2.71,0,5.22-0.84,7.29-2.27c0.42-0.29,1-0.19,1.33,0.21
			l4.48,5.6C51.79,50.82,51.72,51.47,51.27,51.8z"/>
		
			<line fill="none" stroke="#FFFFFF" stroke-width="1.5" stroke-linecap="round" stroke-linejoin="round" stroke-miterlimit="10" x1="30.34" y1="54.48" x2="30.34" y2="66"/>
		
			<line fill="none" stroke="#FFFFFF" stroke-width="1.5" stroke-linecap="round" stroke-linejoin="round" stroke-miterlimit="10" x1="30.34" y1="2" x2="30.34" y2="13.5"/>
		
			<line fill="none" stroke="#FFFFFF" stroke-width="1.5" stroke-linecap="round" stroke-linejoin="round" stroke-miterlimit="10" x1="42.34" y1="55.64" x2="42.34" y2="66"/>
		
			<line fill="none" stroke="#FFFFFF" stroke-width="1.5" stroke-linecap="round" stroke-linejoin="round" stroke-miterlimit="10" x1="42.34" y1="2" x2="42.34" y2="12.36"/>
	</g>
</g>
</svg>
