<?xml version="1.0" encoding="utf-8"?>
<!-- Generator: Adobe Illustrator 25.4.1, SVG Export Plug-In . SVG Version: 6.00 Build 0)  -->
<svg version="1.1" id="Layer_1" xmlns="http://www.w3.org/2000/svg" xmlns:xlink="http://www.w3.org/1999/xlink" x="0px" y="0px"
	 viewBox="0 0 95 95" enable-background="new 0 0 95 95" xml:space="preserve">
<path fill="none" stroke="#FFFFFF" stroke-width="1.5" stroke-linecap="round" stroke-linejoin="round" stroke-miterlimit="10" d="
	M56.64,11.64c0,5.05-4.09,9.14-9.14,9.14s-9.14-4.09-9.14-9.14S42.45,2.5,47.5,2.5S56.64,6.59,56.64,11.64z M47.5,29.22
	c-1.94,0-3.52,1.57-3.52,3.52s1.57,3.52,3.52,3.52s3.52-1.57,3.52-3.52S49.44,29.22,47.5,29.22z M34.57,34.57
	c-1.37,1.37-1.37,3.6,0,4.97s3.6,1.37,4.97,0s1.37-3.6,0-4.97S35.95,33.2,34.57,34.57z M29.22,47.5c0,1.94,1.57,3.52,3.52,3.52
	s3.52-1.57,3.52-3.52s-1.57-3.52-3.52-3.52S29.22,45.56,29.22,47.5z M34.57,60.43c1.37,1.37,3.6,1.37,4.97,0s1.37-3.6,0-4.97
	s-3.6-1.37-4.97,0S33.2,59.05,34.57,60.43z M47.5,65.78c1.94,0,3.52-1.57,3.52-3.52s-1.57-3.52-3.52-3.52s-3.52,1.57-3.52,3.52
	S45.56,65.78,47.5,65.78z M60.43,60.43c1.37-1.37,1.37-3.6,0-4.97s-3.6-1.37-4.97,0s-1.37,3.6,0,4.97S59.05,61.8,60.43,60.43z
	 M65.78,47.5c0-1.94-1.57-3.52-3.52-3.52s-3.52,1.57-3.52,3.52s1.57,3.52,3.52,3.52S65.78,49.44,65.78,47.5z M60.43,34.57
	c-1.37-1.37-3.6-1.37-4.97,0s-1.37,3.6,0,4.97s3.6,1.37,4.97,0S61.8,35.95,60.43,34.57z M15.68,15.68c-3.57,3.57-3.57,9.36,0,12.93
	s9.36,3.57,12.93,0s3.57-9.36,0-12.93S19.25,12.11,15.68,15.68z M2.5,47.5c0,5.05,4.09,9.14,9.14,9.14s9.14-4.09,9.14-9.14
	s-4.09-9.14-9.14-9.14S2.5,42.45,2.5,47.5z M15.68,79.32c3.57,3.57,9.36,3.57,12.93,0c3.57-3.57,3.57-9.36,0-12.93
	c-3.57-3.57-9.36-3.57-12.93,0C12.11,69.96,12.11,75.75,15.68,79.32z M47.5,92.5c5.05,0,9.14-4.09,9.14-9.14s-4.09-9.14-9.14-9.14
	s-9.14,4.09-9.14,9.14S42.45,92.5,47.5,92.5z M79.32,79.32c3.57-3.57,3.57-9.36,0-12.93c-3.57-3.57-9.36-3.57-12.93,0
	c-3.57,3.57-3.57,9.36,0,12.93C69.96,82.89,75.75,82.89,79.32,79.32z M92.5,47.5c0-5.05-4.09-9.14-9.14-9.14s-9.14,4.09-9.14,9.14
	s4.09,9.14,9.14,9.14S92.5,52.55,92.5,47.5z M79.32,15.68c-3.57-3.57-9.36-3.57-12.93,0c-3.57,3.57-3.57,9.36,0,12.93
	c3.57,3.57,9.36,3.57,12.93,0C82.89,25.04,82.89,19.25,79.32,15.68z M65.78,47.5h8.44 M36.25,47.5h22.5 M20.78,47.5h8.44
	 M47.5,65.78v8.44 M47.5,36.25v22.5 M47.5,20.78v8.44 M60.43,60.43l5.97,5.97 M39.55,39.55l15.91,15.91 M28.61,28.61l5.97,5.97
	 M34.57,60.43l-5.97,5.97 M55.45,39.55L39.55,55.45 M66.39,28.61l-5.97,5.97"/>
</svg>
