<?xml version="1.0" encoding="utf-8"?>
<!-- Generator: Adobe Illustrator 25.4.1, SVG Export Plug-In . SVG Version: 6.00 Build 0)  -->
<svg version="1.1" id="Layer_1" xmlns="http://www.w3.org/2000/svg" xmlns:xlink="http://www.w3.org/1999/xlink" x="0px" y="0px"
	 viewBox="0 0 68 68" enable-background="new 0 0 68 68" xml:space="preserve">
<g>
	<defs>
		<rect id="SVGID_1_" x="0" width="68" height="68"/>
	</defs>
	<clipPath id="SVGID_00000038412588313199795470000007779826057960378020_">
		<use xlink:href="#SVGID_1_"  overflow="visible"/>
	</clipPath>
	<g clip-path="url(#SVGID_00000038412588313199795470000007779826057960378020_)">
		
			<path fill="none" stroke="#FFFFFF" stroke-width="1.5" stroke-linecap="round" stroke-linejoin="round" stroke-miterlimit="10" d="
			M38,50v8c0,4.42-3.58,8-8,8H10c-4.42,0-8-3.58-8-8V10c0-4.42,3.58-8,8-8h20c4.42,0,8,3.58,8,8"/>
		
			<line fill="none" stroke="#FFFFFF" stroke-width="1.5" stroke-linecap="round" stroke-linejoin="round" stroke-miterlimit="10" x1="38" y1="10" x2="38" y2="14"/>
		<g>
			
				<line fill="none" stroke="#FFFFFF" stroke-width="1.5" stroke-linecap="round" stroke-linejoin="round" stroke-miterlimit="10" x1="2" y1="58" x2="38" y2="58"/>
		</g>
		
			<path fill="none" stroke="#FFFFFF" stroke-width="1.5" stroke-linecap="round" stroke-linejoin="round" stroke-miterlimit="10" d="
			M10,2l2.83,2.83C13.58,5.58,14.6,6,15.66,6h8.69c1.06,0,2.08-0.42,2.83-1.17L30,2"/>
		
			<path fill="none" stroke="#FFFFFF" stroke-width="1.5" stroke-linecap="round" stroke-linejoin="round" stroke-miterlimit="10" d="
			M64,46H24c-1.1,0-2-0.9-2-2V20c0-1.1,0.9-2,2-2h40c1.1,0,2,0.9,2,2v24C66,45.1,65.1,46,64,46z"/>
		
			<line fill="none" stroke="#FFFFFF" stroke-width="1.5" stroke-linecap="round" stroke-linejoin="round" stroke-miterlimit="10" x1="22" y1="26" x2="66" y2="26"/>
		
			<line fill="none" stroke="#FFFFFF" stroke-width="1.5" stroke-linecap="round" stroke-linejoin="round" stroke-miterlimit="10" x1="22" y1="30" x2="66" y2="30"/>
		
			<line fill="none" stroke="#FFFFFF" stroke-width="1.5" stroke-linecap="round" stroke-linejoin="round" stroke-miterlimit="10" x1="30" y1="38" x2="46" y2="38"/>
		
			<path fill="none" stroke="#FFFFFF" stroke-width="1.5" stroke-linecap="round" stroke-linejoin="round" stroke-miterlimit="10" d="
			M60,41h-4c-0.55,0-1-0.45-1-1v-4c0-0.55,0.45-1,1-1h4c0.55,0,1,0.45,1,1v4C61,40.55,60.55,41,60,41z"/>
	</g>
</g>
</svg>
