<?xml version="1.0" encoding="utf-8"?>
<!-- Generator: Adobe Illustrator 25.4.1, SVG Export Plug-In . SVG Version: 6.00 Build 0)  -->
<svg version="1.1" id="Layer_1" xmlns="http://www.w3.org/2000/svg" xmlns:xlink="http://www.w3.org/1999/xlink" x="0px" y="0px"
	 viewBox="0 0 20 20" enable-background="new 0 0 20 20" xml:space="preserve">
<linearGradient id="SVGID_1_" gradientUnits="userSpaceOnUse" x1="10" y1="0" x2="10" y2="20">
	<stop  offset="0" style="stop-color:#27B3FE"/>
	<stop  offset="1" style="stop-color:#0062E0"/>
</linearGradient>
<path fill="url(#SVGID_1_)" d="M10,0C4.48,0,0.01,4.48,0.01,10c0,5.52,4.47,10,9.99,10c5.52,0,9.99-4.48,9.99-10
	C19.99,4.48,15.52,0,10,0z M12.75,6.12H11.3c-0.24,0-0.57,0.12-0.57,0.63V8.1h2.02l-0.24,2.3h-1.78v6.54h-2.7v-6.54H6.74V8.1h1.29
	V6.61c0-1.06,0.5-2.73,2.73-2.73l2,0.01V6.12z"/>
</svg>
