<?xml version="1.0" encoding="utf-8"?>
<!-- Generator: Adobe Illustrator 25.4.1, SVG Export Plug-In . SVG Version: 6.00 Build 0)  -->
<svg version="1.1" id="Layer_1" xmlns="http://www.w3.org/2000/svg" xmlns:xlink="http://www.w3.org/1999/xlink" x="0px" y="0px"
	 viewBox="0 0 68 68" enable-background="new 0 0 68 68" xml:space="preserve">
<g>
	<defs>
		<rect id="SVGID_1_" x="0" width="68" height="68"/>
	</defs>
	<clipPath id="SVGID_00000062908043728708240580000013318997688302464908_">
		<use xlink:href="#SVGID_1_"  overflow="visible"/>
	</clipPath>
	<g clip-path="url(#SVGID_00000062908043728708240580000013318997688302464908_)">
		
			<path fill="none" stroke="#FFFFFF" stroke-width="1.5" stroke-linecap="round" stroke-linejoin="round" stroke-miterlimit="10" d="
			M62,58H6c-2.21,0-4-1.79-4-4V22c0-2.21,1.79-4,4-4h56c2.21,0,4,1.79,4,4v32C66,56.21,64.21,58,62,58z"/>
		
			<polygon fill="none" stroke="#FFFFFF" stroke-width="1.5" stroke-linecap="round" stroke-linejoin="round" stroke-miterlimit="10" points="
			44,34 44,42 38,42 38,48 30,48 30,42 24,42 24,34 30,34 30,28 38,28 38,34 		"/>
	</g>
	
		<path clip-path="url(#SVGID_00000062908043728708240580000013318997688302464908_)" fill="none" stroke="#FFFFFF" stroke-width="1.5" stroke-linecap="round" stroke-linejoin="round" stroke-miterlimit="10" d="
		M24,18v-6c0-1.1,0.9-2,2-2h16c1.1,0,2,0.9,2,2v6"/>
</g>
</svg>
