<?xml version="1.0" encoding="utf-8"?>
<!-- Generator: Adobe Illustrator 25.4.1, SVG Export Plug-In . SVG Version: 6.00 Build 0)  -->
<svg version="1.1" id="Layer_1" xmlns="http://www.w3.org/2000/svg" xmlns:xlink="http://www.w3.org/1999/xlink" x="0px" y="0px"
	 viewBox="0 0 20 20" enable-background="new 0 0 20 20" xml:space="preserve">
<linearGradient id="SVGID_1_" gradientUnits="userSpaceOnUse" x1="3.9871" y1="20.4148" x2="16.013" y2="-0.4147">
	<stop  offset="0" style="stop-color:#FFDD55"/>
	<stop  offset="0.5" style="stop-color:#FB5246"/>
	<stop  offset="1" style="stop-color:#C837AB"/>
</linearGradient>
<path fill="url(#SVGID_1_)" d="M10.03,12.46c-3.25,0-3.26-4.92,0-4.92C13.28,7.54,13.29,12.46,10.03,12.46z M16.04,12.98
	c-0.16,3.45-2.78,3.07-6.01,3.07c-5.88,0-6.05-0.17-6.05-6.06c0-5.96,0.47-6.05,5.39-6.05v0C15.68,3.93,16.48,3.23,16.04,12.98z
	 M13.82,10c0-2.09-1.7-3.79-3.79-3.79S6.24,7.9,6.24,10s1.7,3.79,3.79,3.79S13.82,12.09,13.82,10z M14.85,6.06
	c0-0.49-0.4-0.89-0.89-0.89c-0.49,0-0.89,0.4-0.89,0.89s0.4,0.89,0.89,0.89C14.46,6.94,14.85,6.55,14.85,6.06z M20,4.48v11.05
	c0,2.47-2,4.48-4.48,4.48H4.48C2.01,20.01,0,18,0,15.52V4.48C0,2,2.01-0.01,4.48-0.01h11.04C18-0.01,20,2,20,4.48z M17.41,10
	c0-2.89,0.16-4.75-1.24-6.15c-1.42-1.42-3.33-1.24-6.14-1.24c-3.02,0-5.9-0.27-6.99,2.55C2.58,6.32,2.65,7.84,2.65,10
	c0,1.9-0.06,3.68,0.39,4.84c1.09,2.82,3.99,2.55,6.99,2.55c2.9,0,5.88,0.3,6.99-2.55C17.47,13.66,17.41,12.17,17.41,10z"/>
</svg>
