<?xml version="1.0" encoding="utf-8"?>
<!-- Generator: Adobe Illustrator 25.4.1, SVG Export Plug-In . SVG Version: 6.00 Build 0)  -->
<svg version="1.1" id="Layer_1" xmlns="http://www.w3.org/2000/svg" xmlns:xlink="http://www.w3.org/1999/xlink" x="0px" y="0px"
	 viewBox="0 0 95 95" enable-background="new 0 0 95 95" xml:space="preserve">
<path fill="none" stroke="#FFFFFF" stroke-width="2" stroke-linecap="round" stroke-linejoin="round" stroke-miterlimit="10" d="
	M32.16,32.16c-0.55-0.78-0.87-1.74-0.87-2.77c0-2.67,2.15-4.83,4.8-4.83c2.33,0,4.27,1.67,4.71,3.89 M38.88,39.04
	c0-0.06,0-0.12,0-0.18c0-1.84-0.73-3.5-1.92-4.71c-1.21-1.23-2.88-1.99-4.73-1.99c-0.02,0-0.04,0-0.06,0
	c-3.65,0.03-6.59,3.02-6.59,6.69c0,0.88,0.17,1.72,0.48,2.49c-1.53,1.22-2.51,3.11-2.51,5.23c0,3.7,2.98,6.69,6.65,6.69
	c0.33,0,0.66-0.02,0.98-0.07 M25.19,50.99c-0.86,1.13-1.37,2.54-1.37,4.07c0,2.71,1.6,5.04,3.9,6.1c-0.17,0.59-0.26,1.21-0.26,1.85
	c0,3.3,2.38,6.05,5.51,6.59c1.15,2.72,3.83,4.62,6.96,4.62c4.18,0,7.56-3.41,7.56-7.6c0-3.78-2.74-6.91-6.33-7.5 M39.18,69.23
	c0.05-0.31,0.07-0.63,0.07-0.96c0-3.64-2.93-6.59-6.55-6.59c-0.31,0-0.62,0.02-0.93,0.07 M41.14,54.12c-0.1,0-0.2-0.01-0.3-0.01
	c-3.62,0-6.55,2.95-6.55,6.59c0,0.41,0.04,0.82,0.11,1.21 M32.25,38.53c-0.01,0.16-0.02,0.33-0.02,0.5c0,3.65,2.94,6.61,6.57,6.61
	c2.16,0,4.08-1.05,5.28-2.67 M33.73,50.33c0.18,0.02,0.37,0.03,0.55,0.03c2.65,0,4.81-2.1,4.92-4.74 M47.5,66.61
	c0,0,0-40.46,0-42.51s-1.5-3.33-4.09-3.33s-6.96,2.37-9.94,4.57 M47.5,40.44c0-2.35-1.89-4.25-4.23-4.25c-0.15,0-0.3,0.01-0.45,0.02
	 M62.84,32.16c0.55-0.78,0.87-1.74,0.87-2.77c0-2.67-2.15-4.83-4.8-4.83c-2.33,0-4.27,1.67-4.71,3.89 M63.82,53.2
	c0.32,0.05,0.65,0.07,0.98,0.07c3.68,0,6.65-3,6.65-6.69c0-2.12-0.98-4.01-2.51-5.23c0.31-0.77,0.48-1.61,0.48-2.49
	c0-3.68-2.94-6.66-6.59-6.69c-0.02,0-0.04,0-0.06,0c-1.85,0-3.52,0.76-4.73,1.99c-1.19,1.21-1.92,2.87-1.92,4.71
	c0,0.06,0,0.12,0,0.18 M47.5,66.61c0,4.2,3.39,7.6,7.56,7.6c3.12,0,5.8-1.9,6.96-4.62c3.13-0.55,5.51-3.29,5.51-6.59
	c0-0.64-0.09-1.26-0.26-1.85c2.3-1.05,3.9-3.39,3.9-6.1c0-1.53-0.51-2.94-1.37-4.07 M61.97,59.87c-0.3-0.04-0.61-0.07-0.93-0.07
	c-3.62,0-6.55,2.95-6.55,6.59c0,0.33,0.02,0.64,0.07,0.96 M59.35,60.03c0.07-0.39,0.11-0.79,0.11-1.21c0-3.64-2.93-6.59-6.55-6.59
	c-0.1,0-0.2,0-0.3,0.01 M50.92,42.97c1.2,1.62,3.12,2.67,5.28,2.67c3.63,0,6.57-2.96,6.57-6.61c0-0.17-0.01-0.33-0.02-0.5
	 M55.8,45.63c0.11,2.63,2.27,4.74,4.92,4.74c0.19,0,0.37-0.01,0.55-0.03 M61.53,25.35c-2.98-2.2-7.35-4.57-9.94-4.57
	s-4.09,1.28-4.09,3.33s0,42.51,0,42.51 M52.18,31.11c-0.15-0.02-0.3-0.02-0.45-0.02c-2.34,0-4.23,1.9-4.23,4.25 M47.5,2.5
	c-2.33,0-4.22,1.89-4.22,4.22s1.89,4.22,4.22,4.22s4.22-1.89,4.22-4.22S49.83,2.5,47.5,2.5z M84.06,22.19
	c-2.33,0-4.22,1.89-4.22,4.22s1.89,4.22,4.22,4.22s4.22-1.89,4.22-4.22S86.39,22.19,84.06,22.19z M84.06,64.38
	c-2.33,0-4.22,1.89-4.22,4.22s1.89,4.22,4.22,4.22s4.22-1.89,4.22-4.22S86.39,64.38,84.06,64.38z M47.5,84.06
	c-2.33,0-4.22,1.89-4.22,4.22s1.89,4.22,4.22,4.22s4.22-1.89,4.22-4.22S49.83,84.06,47.5,84.06z M10.94,22.19
	c-2.33,0-4.22,1.89-4.22,4.22s1.89,4.22,4.22,4.22s4.22-1.89,4.22-4.22S13.27,22.19,10.94,22.19z M10.94,64.38
	c-2.33,0-4.22,1.89-4.22,4.22s1.89,4.22,4.22,4.22s4.22-1.89,4.22-4.22S13.27,64.38,10.94,64.38z M47.5,6.72 M43.78,8.72
	L14.65,24.41 M80.35,24.41L51.22,8.72 M84.06,64.38V30.62 M51.22,86.28l29.13-15.69 M43.78,86.28L14.65,70.59 M10.94,30.62v33.75"/>
</svg>
