<?xml version="1.0" encoding="utf-8"?>
<!-- Generator: Adobe Illustrator 25.4.1, SVG Export Plug-In . SVG Version: 6.00 Build 0)  -->
<svg version="1.1" id="Layer_1" xmlns="http://www.w3.org/2000/svg" xmlns:xlink="http://www.w3.org/1999/xlink" x="0px" y="0px"
	 viewBox="0 0 95 95" enable-background="new 0 0 95 95" xml:space="preserve">
<path fill="none" stroke="#FFFFFF" stroke-width="2" stroke-linecap="round" stroke-linejoin="round" stroke-miterlimit="10" d="
	M86.26,62.61c3.92,5.18,6.24,11.64,6.24,18.64V92.5h-90V81.25c0-17.09,13.85-30.94,30.94-30.94h28.12c1.96,0,3.88,0.18,5.73,0.53
	 M47.5,2.5c-10.87,0-19.69,8.81-19.69,19.69s8.81,19.69,19.69,19.69s19.69-8.81,19.69-19.69S58.37,2.5,47.5,2.5z M23.67,92.5V75.62
	 M70.08,92.5V75.62 M37.73,50.31l9.84,9.84l9.84-9.84 M47.58,60.16l-4.22,25.31l4.22,4.22l4.22-4.22L47.58,60.16z M79.88,39.1
	c-6.97,0-12.62,5.65-12.62,12.62s5.65,12.62,12.62,12.62S92.5,58.69,92.5,51.72S86.85,39.1,79.88,39.1z M74.26,51.02l4.22,4.22
	l7.03-7.03"/>
</svg>
