<svg width="120" height="60" viewBox="0 0 120 60" fill="none" xmlns="http://www.w3.org/2000/svg">
<path d="M48.0054 51.876C48.0197 53.9692 47.2207 55.9862 45.7769 57.5017C44.3331 59.0173 42.3573 59.913 40.266 60H7.74842C5.6903 59.9842 3.72187 59.1554 2.27215 57.6943C0.822423 56.2333 0.00894177 54.2583 0.00900267 52.2V48.156V43.2C-0.00300089 43.0964 -0.00300089 42.9917 0.00900267 42.888C0.0267939 42.5948 0.103857 42.3083 0.235532 42.0458C0.367207 41.7832 0.550758 41.5501 0.775086 41.3606C0.999413 41.171 1.25986 41.0289 1.54066 40.9429C1.82147 40.8568 2.11681 40.8286 2.40882 40.86C2.9778 40.9149 3.50257 41.1907 3.87049 41.6282C4.23841 42.0657 4.42015 42.63 4.37668 43.2V52.2C4.37968 53.101 4.73564 53.965 5.36822 54.6066C6.00079 55.2482 6.8596 55.6163 7.76042 55.632H40.278C41.2104 55.5447 42.0758 55.1101 42.7027 54.4143C43.3295 53.7185 43.6718 52.8125 43.6617 51.876C43.6797 50.9231 43.3417 49.9978 42.7137 49.281C42.0857 48.5642 41.2129 48.1074 40.266 48H20.4075C16.1478 48 12.6921 45.132 12.6681 40.8C12.6621 40.7241 12.6621 40.6479 12.6681 40.572C12.7172 39.6056 12.9565 38.6583 13.3723 37.7845C13.7881 36.9107 14.3722 36.1276 15.0911 35.4799C15.8101 34.8323 16.6497 34.3328 17.562 34.0103C18.4743 33.6877 19.4412 33.5483 20.4075 33.6H34.7104C35.6176 33.5688 36.477 33.1856 37.1064 32.5315C37.7358 31.8773 38.0858 31.0038 38.0821 30.096C38.1089 29.163 37.7722 28.2561 37.1432 27.5665C36.5141 26.877 35.6419 26.4588 34.7104 26.4H7.49644C6.52633 26.4143 5.56293 26.2371 4.66137 25.8786C3.75981 25.5202 2.93778 24.9874 2.24233 24.3108C1.54688 23.6343 0.991657 22.8272 0.608436 21.9358C0.225215 21.0444 0.0215182 20.0862 0.00900267 19.116C0.00900267 14.784 3.48874 12 7.74842 12H40.266C41.1984 11.9128 42.0639 11.4781 42.6907 10.7823C43.3175 10.0865 43.6598 9.1805 43.6497 8.24404C43.6594 7.29784 43.3194 6.3814 42.6949 5.67051C42.0704 4.95963 41.2055 4.50436 40.266 4.39204H7.74842C6.87097 4.37916 6.02402 4.71384 5.39236 5.32307C4.7607 5.9323 4.39559 6.76662 4.37668 7.64404V8.40004C4.33661 8.98174 4.0681 9.52397 3.62974 9.90841C3.19138 10.2928 2.61876 10.4883 2.03685 10.452C1.4583 10.409 0.920292 10.1388 0.540337 9.70031C0.160382 9.26187 -0.0306374 8.69087 0.00900267 8.11204V7.58404C0.0436813 5.55643 0.875127 3.62398 2.32349 2.20471C3.77185 0.785431 5.72068 -0.00656324 7.74842 4.09736e-05H40.266C44.5377 4.09736e-05 48.0054 3.94804 48.0054 8.22004C48.0167 10.3124 47.2167 12.3276 45.7735 13.8425C44.3303 15.3574 42.3563 16.254 40.266 16.344H7.74842C5.88856 16.344 4.37668 17.208 4.37668 19.068C4.37069 19.1599 4.37069 19.2521 4.37668 19.344C4.47007 20.1433 4.87571 20.8732 5.50511 21.3745C6.13451 21.8758 6.9366 22.1078 7.73642 22.02H34.7104C36.7828 22.0884 38.7478 22.9585 40.1914 24.447C41.6351 25.9356 42.4447 27.9263 42.4498 30C42.4501 32.0651 41.639 34.0477 40.1912 35.5202C38.7435 36.9928 36.7751 37.8374 34.7104 37.872H20.4075H20.1315C19.7334 37.8625 19.3373 37.9316 18.966 38.0756C18.5947 38.2195 18.2555 38.4354 17.9679 38.7108C17.6802 38.9862 17.4498 39.3157 17.2898 39.6804C17.1299 40.0451 17.0435 40.4378 17.0357 40.836C17.0357 42.696 18.5476 43.62 20.4075 43.62H40.266C44.5377 43.656 48.0054 47.604 48.0054 51.876ZM60.0045 43.632H79.407V37.2H67.096V32.4H75.4953V26.532H67.096V22.8H78.9151V16.356H60.0045V43.632ZM87.7104 43.632H106.081V37.2H94.8019V16.356H87.6864L87.7104 43.632ZM112.909 43.632H120V16.356H112.885L112.909 43.632Z" fill="#808CA6"/>
</svg>
