<?xml version="1.0" encoding="utf-8"?>
<!-- Generator: Adobe Illustrator 25.4.1, SVG Export Plug-In . SVG Version: 6.00 Build 0)  -->
<svg version="1.1" id="Layer_1" xmlns="http://www.w3.org/2000/svg" xmlns:xlink="http://www.w3.org/1999/xlink" x="0px" y="0px"
	 viewBox="0 0 68 68" enable-background="new 0 0 68 68" xml:space="preserve">
<g>
	<defs>
		<rect id="SVGID_1_" x="0" width="68" height="68"/>
	</defs>
	<clipPath id="SVGID_00000013912039769949188000000012849356999577860798_">
		<use xlink:href="#SVGID_1_"  overflow="visible"/>
	</clipPath>
	<g clip-path="url(#SVGID_00000013912039769949188000000012849356999577860798_)">
		
			<line fill="none" stroke="#FFFFFF" stroke-width="1.5" stroke-linecap="round" stroke-linejoin="round" stroke-miterlimit="10" x1="2" y1="65" x2="66" y2="65"/>
		
			<path fill="none" stroke="#FFFFFF" stroke-width="1.5" stroke-linecap="round" stroke-linejoin="round" stroke-miterlimit="10" d="
			M28,65V38c0-0.55,0.45-1,1-1h10c0.55,0,1,0.45,1,1v27"/>
		
			<path fill="none" stroke="#FFFFFF" stroke-width="1.5" stroke-linecap="round" stroke-linejoin="round" stroke-miterlimit="10" d="
			M48,65V30c0-0.55,0.45-1,1-1h10c0.55,0,1,0.45,1,1v35"/>
		
			<path fill="none" stroke="#FFFFFF" stroke-width="1.5" stroke-linecap="round" stroke-linejoin="round" stroke-miterlimit="10" d="
			M8,65V46c0-0.55,0.45-1,1-1h10c0.55,0,1,0.45,1,1v19"/>
		
			<path fill="none" stroke="#FFFFFF" stroke-width="1.5" stroke-linecap="round" stroke-linejoin="round" stroke-miterlimit="10" d="
			M58,3L20.28,36.95C18.81,38.27,16.91,39,14.93,39H4"/>
		
			<polyline fill="none" stroke="#FFFFFF" stroke-width="1.5" stroke-linecap="round" stroke-linejoin="round" stroke-miterlimit="10" points="
			53.71,4.27 58,3 56.44,7.19 		"/>
	</g>
</g>
</svg>
