<?xml version="1.0" encoding="utf-8"?>
<!-- Generator: Adobe Illustrator 25.4.1, SVG Export Plug-In . SVG Version: 6.00 Build 0)  -->
<svg version="1.1" id="Layer_1" xmlns="http://www.w3.org/2000/svg" xmlns:xlink="http://www.w3.org/1999/xlink" x="0px" y="0px"
	 viewBox="0 0 210 210" enable-background="new 0 0 210 210" xml:space="preserve">
<circle fill="#F4F7FF" cx="105" cy="105" r="65"/>
<g>
	<path fill="#FFFFFF" d="M195,63.56v87.1c0,3.21-2.6,5.81-5.81,5.81h-22.24l-32.01-28.34c8.54-11.57,13.6-25.87,13.6-41.34
		c0-10.36-2.26-20.19-6.33-29.03h46.97C192.4,57.75,195,60.35,195,63.56z"/>
	
		<path fill="#FFFFFF" stroke="#0A307C" stroke-width="1.5" stroke-linecap="round" stroke-linejoin="round" stroke-miterlimit="10" d="
		M126.96,128.81l46.95,41.56c4.12,3.66,4.33,10.03,0.42,13.92l0,0c-3.89,3.89-10.26,3.7-13.92-0.42l-41.73-47.13"/>
	
		<circle fill="#FFFFFF" stroke="#0A307C" stroke-width="1.5" stroke-linecap="round" stroke-linejoin="round" stroke-miterlimit="10" cx="78.87" cy="86.78" r="63.87"/>
	<circle fill="#C5ECFF" cx="78.87" cy="86.78" r="40.65"/>
	
		<circle fill="none" stroke="#0A307C" stroke-width="1.5" stroke-linecap="round" stroke-linejoin="round" stroke-miterlimit="10" cx="78.87" cy="86.78" r="55.16"/>
	<path fill="none" stroke="#0A307C" stroke-width="1.5" stroke-linecap="round" stroke-linejoin="round" stroke-miterlimit="10" d="
		M55.65,46.54c-5.01,2.9-9.44,6.71-13.04,11.21"/>
	<path fill="none" stroke="#0A307C" stroke-width="1.5" stroke-linecap="round" stroke-linejoin="round" stroke-miterlimit="10" d="
		M64.35,42.64c-2,0.65-3.93,1.45-5.81,2.35"/>
	
		<path fill="#FFFFFF" stroke="#0A307C" stroke-width="1.5" stroke-linecap="round" stroke-linejoin="round" stroke-miterlimit="10" d="
		M128.34,152.02l-3.86-4.35c-1.02-1.15-0.96-2.89,0.12-3.98l9.12-9.12c1.09-1.09,2.83-1.13,3.98-0.12l4.35,3.86
		c1.25,1.1,1.31,3.05,0.13,4.22l-9.62,9.62C131.39,153.34,129.45,153.28,128.34,152.02z"/>
	<path fill="none" stroke="#0A307C" stroke-width="1.5" stroke-linecap="round" stroke-linejoin="round" stroke-miterlimit="10" d="
		M99.09,85.22l1.07,2.1c0.46,0.91,0.68,1.92,0.68,2.92c0,1.7-0.67,3.4-1.92,4.65c0,8.29-2.47,7.93-6.68,13.37
		c-4.22,5.46-6.9,13.37-13.37,13.37c-6.47,0-9.15-7.93-13.37-13.37c-2.1-2.73-3.77-3.99-4.94-5.62c-1.13-1.63-1.76-3.61-1.76-7.75
		c-1.99-1.99-2.5-5.05-1.23-7.56l1.07-2.1"/>
	<path fill="none" stroke="#0A307C" stroke-width="1.5" stroke-linecap="round" stroke-linejoin="round" stroke-miterlimit="10" d="
		M62.96,71.74c2.5,0.78,10.36,3.09,15.91,3.09c5.55,0,13.41-2.31,15.91-3.09"/>
	
		<line fill="none" stroke="#0A307C" stroke-width="1.5" stroke-linecap="round" stroke-linejoin="round" stroke-miterlimit="10" x1="55.65" y1="110.01" x2="39.87" y2="125.79"/>
	
		<line fill="none" stroke="#0A307C" stroke-width="1.5" stroke-linecap="round" stroke-linejoin="round" stroke-miterlimit="10" x1="117.88" y1="47.78" x2="102.1" y2="63.56"/>
	
		<line fill="none" stroke="#0A307C" stroke-width="1.5" stroke-linecap="round" stroke-linejoin="round" stroke-miterlimit="10" x1="163.06" y1="168.07" x2="165.97" y2="170.98"/>
	
		<line fill="none" stroke="#0A307C" stroke-width="1.5" stroke-linecap="round" stroke-linejoin="round" stroke-miterlimit="10" x1="145.65" y1="150.65" x2="160.16" y2="165.17"/>
	<path fill="none" stroke="#0A307C" stroke-width="1.5" stroke-linecap="round" stroke-linejoin="round" stroke-miterlimit="10" d="
		M142.74,57.75h46.45c3.21,0,5.81,2.6,5.81,5.81v87.1c0,3.21-2.6,5.81-5.81,5.81h-23.23"/>
	
		<line fill="none" stroke="#0A307C" stroke-width="1.5" stroke-linecap="round" stroke-linejoin="round" stroke-miterlimit="10" x1="145.65" y1="72.27" x2="195" y2="72.27"/>
	<circle fill="#0A307C" cx="170.32" cy="65.01" r="1.45"/>
	<circle fill="#0A307C" cx="179.03" cy="65.01" r="1.45"/>
	<circle fill="#0A307C" cx="187.74" cy="65.01" r="1.45"/>
	<path fill="#3BABFF" d="M167.25,93.48l14.98,27.45c0.52,0.97-0.17,2.15-1.28,2.15H151c-1.1,0-1.8-1.18-1.28-2.15l14.98-27.45
		C165.24,92.46,166.69,92.46,167.25,93.48z"/>
	
		<line fill="none" stroke="#FFFFFF" stroke-width="1.5" stroke-linecap="round" stroke-linejoin="round" stroke-miterlimit="10" x1="165.97" y1="101.3" x2="165.97" y2="112.91"/>
	<circle fill="#FFFFFF" cx="165.97" cy="117.27" r="1.45"/>
	<path fill="#C5ECFF" d="M75.53,88.13v2.21c0,0.09,0,0.16-0.01,0.25c0,0-3.09,0.09-6.68-0.29c-1.61-0.17-3.12-0.52-4.3-0.86
		c-1.42-0.39-2.38-1.68-2.38-3.15l0,0C66,87.26,70.57,87.93,75.53,88.13z"/>
	<path fill="#C5ECFF" d="M82.21,88.13v2.21c0,0.09,0,0.16,0.01,0.25c0,0,3.09,0.09,6.68-0.29c1.61-0.17,3.12-0.52,4.3-0.86
		c1.42-0.39,2.38-1.68,2.38-3.15l0,0C91.75,87.26,87.17,87.93,82.21,88.13z"/>
	<path fill="none" stroke="#0A307C" stroke-width="1.5" stroke-linecap="round" stroke-linejoin="round" stroke-miterlimit="10" d="
		M75.53,88.13v2.21c0,0.09,0,0.16-0.01,0.25c-0.15,2.73-2.82,4.76-5.68,4.22L65.72,94c-2.08-0.38-3.56-2.12-3.56-4.14v-1.19v-2.38"
		/>
	<path fill="none" stroke="#0A307C" stroke-width="1.5" stroke-linecap="round" stroke-linejoin="round" stroke-miterlimit="10" d="
		M63.19,69.83c-7.66,1.79-12.73,4.86-12.73,8.35c0,2.76,3.12,5.24,8.19,7.04c0.41,0.15,0.84,0.29,1.28,0.42
		c0.71,0.23,1.47,0.45,2.24,0.65c3.83,0.97,8.4,1.64,13.37,1.84c0.42,0.01,0.84,0.03,1.26,0.04c0.68,0.01,1.38,0.03,2.08,0.03
		c6.24,0,12.03-0.73,16.71-1.92c1.25-0.32,2.42-0.7,3.51-1.07c5.07-1.8,8.19-4.28,8.19-7.04c0-3.48-5.07-6.56-12.73-8.35"/>
	<path fill="none" stroke="#0A307C" stroke-width="1.5" stroke-linecap="round" stroke-linejoin="round" stroke-miterlimit="10" d="
		M95.58,86.28v3.57c0,2.02-1.48,3.76-3.56,4.14l-4.12,0.8c-2.95,0.55-5.68-1.6-5.68-4.46v-2.21"/>
	
		<line fill="none" stroke="#0A307C" stroke-width="1.5" stroke-linecap="round" stroke-linejoin="round" stroke-miterlimit="10" x1="75.97" y1="107.11" x2="81.77" y2="107.11"/>
	<path fill="none" stroke="#0A307C" stroke-width="1.5" stroke-linecap="round" stroke-linejoin="round" stroke-miterlimit="10" d="
		M95.43,76.94c0.09,0.75-0.33,1.47-1.02,1.76c-2.34,0.93-7.98,2.83-15.53,2.83s-13.2-1.89-15.53-2.83c-0.68-0.29-1.1-1-1.02-1.76
		l0.89-7.11l1.47-11.69c0.3-2.45,3.03-3.67,5.15-2.37c2.09,1.29,5.05,2.35,9.06,2.35c4.01,0,6.97-1.07,9.06-2.35
		c2.1-1.31,4.85-0.09,5.15,2.37l1.47,11.69L95.43,76.94z"/>
</g>
</svg>
