<?xml version="1.0" encoding="utf-8"?>
<!-- Generator: Adobe Illustrator 25.4.1, SVG Export Plug-In . SVG Version: 6.00 Build 0)  -->
<svg version="1.1" id="Layer_1" xmlns="http://www.w3.org/2000/svg" xmlns:xlink="http://www.w3.org/1999/xlink" x="0px" y="0px"
	 viewBox="0 0 240 338" enable-background="new 0 0 240 338" xml:space="preserve">
<g opacity="0.15">
	<path fill="#FFFFFF" d="M213.08,56.43V16.9h18.53c4.63,0,8.39-3.78,8.39-8.45c0-4.67-3.75-8.45-8.39-8.45H8.39
		C3.75,0,0,3.78,0,8.45c0,4.67,3.75,8.45,8.39,8.45h18.53v39.53c0.12,24.24,9.93,47.41,27.2,64.28l53.64,52.25l-51.27,48.62
		c-17.82,16.95-27.91,40.56-27.89,65.26v34.27H8.39c-4.63,0-8.39,3.78-8.39,8.45c0,4.67,3.75,8.45,8.39,8.45h223.23
		c4.63,0,8.39-3.78,8.39-8.45c0-4.67-3.75-8.45-8.39-8.45h-17.69v-33.64c-0.04-25.13-10.54-49.09-28.94-66.05l-52.72-48.53
		l53.63-52.17C203.16,103.83,212.97,80.67,213.08,56.43L213.08,56.43z M197.15,287.46v33.64H45.37v-34.27
		c-0.01-20.04,8.19-39.18,22.64-52.94l52.12-49.33l53.56,49.31C188.61,247.64,197.12,267.08,197.15,287.46L197.15,287.46z
		 M120,161.29l-54.21-52.72C51.77,94.88,43.8,76.09,43.69,56.43V16.9h152.62v39.53c-0.11,19.66-8.08,38.46-22.1,52.14L120,161.29z
		 M120,161.29"/>
</g>
</svg>
