<?xml version="1.0" encoding="utf-8"?>
<!-- Generator: Adobe Illustrator 25.4.1, SVG Export Plug-In . SVG Version: 6.00 Build 0)  -->
<svg version="1.1" id="Layer_1" xmlns="http://www.w3.org/2000/svg" xmlns:xlink="http://www.w3.org/1999/xlink" x="0px" y="0px"
	 viewBox="0 0 210 210" enable-background="new 0 0 210 210" xml:space="preserve">
<circle fill="#F4F7FF" cx="105" cy="105" r="65"/>
<g>
	<path fill="#FFFFFF" d="M165.97,145.65c0,2.41-0.97,4.59-2.55,6.15c-1.57,1.58-3.75,2.55-6.15,2.55H23.71
		c-4.8,0-8.71-3.9-8.71-8.71h14.52V70.16c0-3.21,2.6-5.81,5.81-5.81h110.32c3.21,0,5.81,2.6,5.81,5.81v75.48L165.97,145.65
		L165.97,145.65z"/>
	<path fill="none" stroke="#0A307C" stroke-linecap="round" stroke-linejoin="round" stroke-miterlimit="10" d="M29.52,145.65V70.16
		c0-3.21,2.6-5.81,5.81-5.81h110.32c3.21,0,5.81,2.6,5.81,5.81v75.48"/>
	<path fill="none" stroke="#0A307C" stroke-linecap="round" stroke-linejoin="round" stroke-miterlimit="10" d="M165.97,145.65
		c0,2.41-0.97,4.59-2.55,6.15c-1.57,1.58-3.75,2.55-6.15,2.55H23.71c-4.8,0-8.71-3.9-8.71-8.71h59.6c0.9,0,1.79,0.2,2.58,0.61
		l3.37,1.68c0.8,0.41,1.68,0.61,2.58,0.61h20.5c0.9,0,1.79-0.2,2.58-0.61l3.37-1.68c0.8-0.41,1.68-0.61,2.58-0.61h53.81V145.65z"/>
	<path fill="#C5ECFF" d="M52.74,139.84H41.13v-24.13c0-1.1,0.9-2,2-2h7.61c1.1,0,2,0.9,2,2V139.84z"/>
	<path fill="#C5ECFF" d="M70.16,139.84H58.55V95.39c0-1.1,0.9-2,2-2h7.61c1.1,0,2,0.9,2,2C70.16,95.39,70.16,139.84,70.16,139.84z"
		/>
	<path fill="#C5ECFF" d="M87.58,139.84H75.97V104.1c0-1.1,0.9-2,2-2h7.61c1.1,0,2,0.9,2,2V139.84z"/>
	<path fill="#C5ECFF" d="M105,139.84H93.39V86.68c0-1.1,0.9-2,2-2H103c1.1,0,2,0.9,2,2V139.84z"/>
	<path fill="#C5ECFF" d="M122.42,139.84h-11.61V92.48c0-1.1,0.9-2,2-2h7.61c1.1,0,2,0.9,2,2V139.84z"/>
	<path fill="#C5ECFF" d="M139.84,139.84h-11.61V80.87c0-1.1,0.9-2,2-2h7.61c1.1,0,2,0.9,2,2V139.84z"/>
	<path fill="none" stroke="#0A307C" stroke-linecap="round" stroke-linejoin="round" stroke-miterlimit="10" d="M35.32,137.84V72.16
		c0-1.1,0.9-2,2-2h106.32c1.1,0,2,0.9,2,2v65.68c0,1.1-0.9,2-2,2H37.32C36.22,139.84,35.32,138.94,35.32,137.84z"/>
	<polyline fill="none" stroke="#0A307C" stroke-linecap="round" stroke-linejoin="round" stroke-miterlimit="10" points="
		131.13,84.68 87.58,128.23 64.35,105 41.13,128.23 	"/>
	<polyline fill="none" stroke="#0A307C" stroke-linecap="round" stroke-linejoin="round" stroke-miterlimit="10" points="
		129.63,90.29 131.13,84.68 125.52,86.18 	"/>
	<g>
		<circle fill="#0A307C" cx="64.35" cy="105" r="2.9"/>
	</g>
	<g>
		<circle fill="#0A307C" cx="87.58" cy="128.23" r="2.9"/>
	</g>
	<g>
		<circle fill="#0A307C" cx="93.39" cy="144.19" r="1.45"/>
	</g>
	<g>
		<path fill="#FFFFFF" stroke="#0A307C" stroke-linecap="round" stroke-linejoin="round" stroke-miterlimit="10" d="M169.97,84.68
			H191c2.21,0,4-1.79,4-4V59.65c0-2.21-1.79-4-4-4h-21.03c-2.21,0-4,1.79-4,4v21.03C165.97,82.89,167.76,84.68,169.97,84.68z"/>
		
			<line fill="none" stroke="#0A307C" stroke-linecap="round" stroke-linejoin="round" stroke-miterlimit="10" x1="185.32" y1="62.9" x2="175.65" y2="77.42"/>
		<circle fill="#0A307C" cx="178.06" cy="65.32" r="1.21"/>
		<circle fill="#0A307C" cx="182.9" cy="75" r="1.21"/>
	</g>
	<g>
		<path fill="#FFFFFF" stroke="#0A307C" stroke-linecap="round" stroke-linejoin="round" stroke-miterlimit="10" d="M169.97,131.13
			H191c2.21,0,4-1.79,4-4V106.1c0-2.21-1.79-4-4-4h-21.03c-2.21,0-4,1.79-4,4v21.03C165.97,129.34,167.76,131.13,169.97,131.13z"/>
		<path fill="#3BABFF" d="M184.71,118.51c-0.08-0.28-0.18-0.53-0.29-0.74c-0.12-0.21-0.28-0.42-0.49-0.62
			c-0.21-0.2-0.41-0.36-0.58-0.49c-0.17-0.12-0.41-0.26-0.7-0.41c-0.3-0.15-0.53-0.27-0.71-0.34c-0.17-0.07-0.43-0.18-0.75-0.31
			c-0.29-0.12-0.51-0.21-0.65-0.27s-0.33-0.15-0.56-0.26s-0.41-0.21-0.52-0.3c-0.11-0.09-0.24-0.19-0.37-0.32
			c-0.13-0.13-0.22-0.26-0.28-0.4c-0.05-0.14-0.08-0.3-0.08-0.47c0-0.44,0.19-0.8,0.56-1.08s0.85-0.42,1.44-0.42
			c0.26,0,0.53,0.04,0.8,0.11s0.5,0.16,0.69,0.25s0.37,0.2,0.55,0.31c0.17,0.11,0.29,0.2,0.36,0.26c0.07,0.06,0.12,0.1,0.14,0.12
			c0.08,0.06,0.16,0.09,0.25,0.07c0.09-0.01,0.16-0.06,0.21-0.16l0.75-1.42c0.07-0.13,0.06-0.25-0.05-0.37
			c-0.04-0.04-0.08-0.08-0.14-0.14c-0.06-0.05-0.18-0.15-0.36-0.28c-0.19-0.14-0.38-0.26-0.59-0.36c-0.21-0.11-0.48-0.21-0.81-0.32
			s-0.68-0.18-1.03-0.22v-1.71c0-0.09-0.03-0.17-0.08-0.22c-0.06-0.06-0.13-0.09-0.21-0.09h-1.26c-0.08,0-0.15,0.03-0.21,0.09
			c-0.06,0.06-0.09,0.13-0.09,0.22v1.75c-0.98,0.19-1.77,0.63-2.38,1.3c-0.61,0.67-0.91,1.46-0.91,2.35c0,0.27,0.03,0.52,0.08,0.76
			c0.05,0.24,0.12,0.46,0.2,0.65s0.19,0.38,0.33,0.56s0.28,0.34,0.41,0.48c0.13,0.13,0.29,0.27,0.5,0.41
			c0.2,0.14,0.38,0.26,0.53,0.35s0.34,0.19,0.58,0.3s0.43,0.2,0.57,0.26c0.14,0.06,0.33,0.14,0.57,0.24
			c0.34,0.14,0.58,0.24,0.75,0.32c0.16,0.07,0.37,0.18,0.61,0.31c0.25,0.13,0.43,0.25,0.54,0.36c0.12,0.11,0.22,0.25,0.31,0.41
			s0.14,0.33,0.14,0.51c0,0.51-0.19,0.91-0.57,1.19s-0.82,0.42-1.33,0.42c-0.23,0-0.46-0.03-0.69-0.08
			c-0.81-0.17-1.56-0.57-2.26-1.21l-0.02-0.02c-0.06-0.07-0.13-0.1-0.22-0.09c-0.1,0.01-0.17,0.05-0.21,0.12l-0.96,1.31
			c-0.09,0.13-0.09,0.26,0.02,0.4c0.03,0.04,0.09,0.1,0.16,0.18c0.08,0.08,0.22,0.2,0.43,0.36c0.21,0.17,0.44,0.32,0.69,0.47
			s0.56,0.29,0.95,0.43s0.78,0.24,1.19,0.3v1.7c0,0.08,0.03,0.16,0.09,0.22s0.13,0.09,0.21,0.09h1.26c0.09,0,0.16-0.03,0.21-0.09
			c0.06-0.06,0.08-0.13,0.08-0.22v-1.7c0.99-0.17,1.79-0.61,2.41-1.33c0.62-0.72,0.93-1.57,0.93-2.56
			C184.83,119.1,184.79,118.79,184.71,118.51L184.71,118.51z"/>
	</g>
	
		<line fill="none" stroke="#0A307C" stroke-linecap="round" stroke-linejoin="round" stroke-miterlimit="10" x1="142.74" y1="105" x2="142.74" y2="105"/>
	<g>
		<path fill="#FFFFFF" stroke="#0A307C" stroke-linecap="round" stroke-linejoin="round" stroke-miterlimit="10" d="M140.94,110.81
			h26.84c2.21,0,4-1.79,4-4V79.97c0-2.21-1.79-4-4-4h-26.84c-2.21,0-4,1.79-4,4v26.84C136.94,109.02,138.73,110.81,140.94,110.81z"
			/>
		
			<circle fill="none" stroke="#0A307C" stroke-linecap="round" stroke-linejoin="round" stroke-miterlimit="10" cx="154.35" cy="87.58" r="5.81"/>
		<path fill="none" stroke="#0A307C" stroke-linecap="round" stroke-linejoin="round" stroke-miterlimit="10" d="M142.74,105
			c0-6.41,5.2-11.61,11.61-11.61s11.61,5.2,11.61,11.61"/>
	</g>
</g>
</svg>
