<?xml version="1.0" encoding="utf-8"?>
<!-- Generator: Adobe Illustrator 25.4.1, SVG Export Plug-In . SVG Version: 6.00 Build 0)  -->
<svg version="1.1" id="Layer_1" xmlns="http://www.w3.org/2000/svg" xmlns:xlink="http://www.w3.org/1999/xlink" x="0px" y="0px"
	 viewBox="0 0 68 68" enable-background="new 0 0 68 68" xml:space="preserve">
<g>
	<defs>
		<rect id="SVGID_1_" x="0" width="68" height="68"/>
	</defs>
	<clipPath id="SVGID_00000048468376781593925910000007986645044356918425_">
		<use xlink:href="#SVGID_1_"  overflow="visible"/>
	</clipPath>
	<g clip-path="url(#SVGID_00000048468376781593925910000007986645044356918425_)">
		
			<path fill="none" stroke="#FFFFFF" stroke-width="1.5" stroke-linecap="round" stroke-linejoin="round" stroke-miterlimit="10" d="
			M2,26C5.67,12.2,18.6,2,34,2s28.33,10.2,32,24"/>
		
			<path fill="none" stroke="#FFFFFF" stroke-width="1.5" stroke-linecap="round" stroke-linejoin="round" stroke-miterlimit="10" d="
			M18,26L18,26c-4.74-3.56-11.26-3.56-16,0l0,0"/>
		
			<path fill="none" stroke="#FFFFFF" stroke-width="1.5" stroke-linecap="round" stroke-linejoin="round" stroke-miterlimit="10" d="
			M34,26L34,26c-4.74-3.56-11.26-3.56-16,0l0,0"/>
		
			<path fill="none" stroke="#FFFFFF" stroke-width="1.5" stroke-linecap="round" stroke-linejoin="round" stroke-miterlimit="10" d="
			M34,26L34,26c4.74-3.56,11.26-3.56,16,0l0,0"/>
		
			<path fill="none" stroke="#FFFFFF" stroke-width="1.5" stroke-linecap="round" stroke-linejoin="round" stroke-miterlimit="10" d="
			M66,26L66,26c-4.74-3.56-11.26-3.56-16,0l0,0"/>
		
			<path fill="none" stroke="#FFFFFF" stroke-width="1.5" stroke-linecap="round" stroke-linejoin="round" stroke-miterlimit="10" d="
			M34,2v60c0,2.21,1.79,4,4,4s4-1.79,4-4v-2"/>
		
			<path fill="none" stroke="#FFFFFF" stroke-width="1.5" stroke-linecap="round" stroke-linejoin="round" stroke-miterlimit="10" d="
			M18,26C20,8,34,2,34,2"/>
		
			<path fill="none" stroke="#FFFFFF" stroke-width="1.5" stroke-linecap="round" stroke-linejoin="round" stroke-miterlimit="10" d="
			M50,26C48,8,34,2,34,2"/>
	</g>
</g>
</svg>
