<svg width="101" height="50" viewBox="0 0 101 50" fill="none" xmlns="http://www.w3.org/2000/svg">
<path d="M41.0002 43.23C41.0121 44.9744 40.3462 46.6552 39.1429 47.9181C37.9397 49.1811 36.293 49.9275 34.5502 50H7.45018C5.73495 49.9868 4.09447 49.2962 2.88627 48.0786C1.67808 46.8611 1.00013 45.2153 1.00018 43.5V40.13V36C0.990175 35.9137 0.990175 35.8264 1.00018 35.74C1.01501 35.4957 1.07923 35.257 1.18897 35.0382C1.2987 34.8194 1.45168 34.6251 1.63863 34.4672C1.82558 34.3092 2.04263 34.1908 2.27666 34.1191C2.51068 34.0474 2.75682 34.0239 3.00018 34.05C3.47436 34.0958 3.9117 34.3256 4.21833 34.6902C4.52495 35.0548 4.67641 35.525 4.64018 36V43.5C4.64268 44.2509 4.93934 44.9709 5.46653 45.5055C5.99371 46.0402 6.70943 46.347 7.46018 46.36H34.5602C35.3372 46.2873 36.0585 45.9251 36.5809 45.3453C37.1033 44.7655 37.3886 44.0104 37.3802 43.23C37.3952 42.436 37.1135 41.6649 36.5901 41.0675C36.0667 40.4702 35.3393 40.0895 34.5502 40H18.0002C14.4502 40 11.5702 37.61 11.5502 34C11.5452 33.9368 11.5452 33.8733 11.5502 33.81C11.5911 33.0047 11.7906 32.2153 12.1371 31.4871C12.4836 30.759 12.9704 30.1063 13.5696 29.5666C14.1687 29.0269 14.8685 28.6107 15.6288 28.3419C16.3891 28.0731 17.1949 27.9569 18.0002 28H29.9202C30.6762 27.974 31.3924 27.6547 31.917 27.1096C32.4416 26.5645 32.7332 25.8365 32.7302 25.08C32.7525 24.3025 32.4719 23.5468 31.9476 22.9721C31.4234 22.3975 30.6965 22.049 29.9202 22H7.24018C6.4317 22.0119 5.6288 21.8643 4.87744 21.5655C4.12608 21.2668 3.44101 20.8228 2.86142 20.259C2.28184 19.6952 1.81912 19.0227 1.49974 18.2799C1.18037 17.537 1.01061 16.7385 1.00018 15.93C1.00018 12.32 3.90018 10 7.45018 10H34.5502C35.3272 9.92731 36.0485 9.56509 36.5709 8.98527C37.0933 8.40545 37.3786 7.65042 37.3702 6.87003C37.3782 6.08154 37.0948 5.31783 36.5744 4.72543C36.054 4.13302 35.3331 3.75363 34.5502 3.66003H7.45018C6.71891 3.6493 6.01307 3.92821 5.48665 4.43589C4.96023 4.94358 4.65594 5.63886 4.64018 6.37003V7.00003C4.60679 7.48478 4.38301 7.93665 4.01768 8.25701C3.65235 8.57738 3.17514 8.74023 2.69018 8.71003C2.20802 8.67418 1.75964 8.44897 1.44299 8.0836C1.12634 7.71823 0.967143 7.2424 1.00018 6.76003V6.32003C1.02908 4.63036 1.722 3.01998 2.92906 1.83726C4.13612 0.654526 5.76027 -0.00546937 7.45018 3.41447e-05H34.5502C38.1102 3.41447e-05 41.0002 3.29003 41.0002 6.85003C41.0096 8.59364 40.3428 10.273 39.1401 11.5354C37.9374 12.7979 36.2922 13.545 34.5502 13.62H7.45018C5.90018 13.62 4.64018 14.34 4.64018 15.89C4.63519 15.9666 4.63519 16.0434 4.64018 16.12C4.71802 16.7861 5.05607 17.3943 5.58061 17.8121C6.10515 18.2298 6.77361 18.4232 7.44018 18.35H29.9202C31.6473 18.407 33.2849 19.1321 34.488 20.3726C35.6912 21.613 36.3659 23.272 36.3702 25C36.3704 26.721 35.6944 28.3731 34.4879 29.6002C33.2813 30.8273 31.6409 31.5312 29.9202 31.56H18.0002H17.7702C17.4384 31.5521 17.1083 31.6097 16.7989 31.7297C16.4894 31.8496 16.2067 32.0295 15.967 32.259C15.7273 32.4885 15.5353 32.7631 15.4019 33.067C15.2686 33.371 15.1967 33.6982 15.1902 34.03C15.1902 35.58 16.4502 36.35 18.0002 36.35H34.5502C38.1102 36.38 41.0002 39.67 41.0002 43.23ZM51.0002 36.36H67.1702V31H56.9102V27H63.9102V22.11H56.9102V19H66.7602V13.63H51.0002V36.36ZM74.0902 36.36H89.4002V31H80.0002V13.63H74.0702L74.0902 36.36ZM95.0902 36.36H101V13.63H95.0702L95.0902 36.36Z" fill="white"/>
</svg>
