<?xml version="1.0" encoding="utf-8"?>
<!-- Generator: Adobe Illustrator 25.4.1, SVG Export Plug-In . SVG Version: 6.00 Build 0)  -->
<svg version="1.1" id="Layer_1" xmlns="http://www.w3.org/2000/svg" xmlns:xlink="http://www.w3.org/1999/xlink" x="0px" y="0px"
	 viewBox="0 0 210 210" enable-background="new 0 0 210 210" xml:space="preserve">
<circle fill="#F4F7FF" cx="105" cy="105" r="65"/>
<g>
	<path fill="none" stroke="#0A307C" stroke-linecap="round" stroke-linejoin="round" stroke-miterlimit="10" d="M99.19,150.7
		l-2.9,5.81l-13.04,1.45c-7.75,0.86-13.98,6.76-15.26,14.45l-3.64,21.84h81.29L142,172.41c-1.28-7.69-7.51-13.59-15.26-14.45
		l-13.04-1.45l-2.9-5.81"/>
	
		<line fill="none" stroke="#0A307C" stroke-linecap="round" stroke-linejoin="round" stroke-miterlimit="10" x1="81.77" y1="194.25" x2="81.77" y2="182.64"/>
	
		<line fill="none" stroke="#0A307C" stroke-linecap="round" stroke-linejoin="round" stroke-miterlimit="10" x1="128.23" y1="194.25" x2="128.23" y2="182.64"/>
	<path fill="none" stroke="#0A307C" stroke-linecap="round" stroke-linejoin="round" stroke-miterlimit="10" d="M122.42,121.67v8.71
		c0,11.22-7.8,20.32-17.42,20.32s-17.42-9.1-17.42-20.32v-8.71c0,0,8.71-2.9,11.61-11.61C99.19,110.06,105,118.77,122.42,121.67z"/>
	<path fill="none" stroke="#0A307C" stroke-linecap="round" stroke-linejoin="round" stroke-miterlimit="10" d="M81.77,156.51
		v-37.74c0-12.83,10.4-23.23,23.23-23.23s23.23,10.4,23.23,23.23v37.74"/>
	<path fill="none" stroke="#0A307C" stroke-linecap="round" stroke-linejoin="round" stroke-miterlimit="10" d="M113.71,156.51
		c0,0,0,5.81-8.71,17.42c-8.71-11.61-8.71-17.42-8.71-17.42"/>
	<path fill="none" stroke="#0A307C" stroke-linecap="round" stroke-linejoin="round" stroke-miterlimit="10" d="M93.39,127.48
		c0,0,2.9-2.9,5.81,0"/>
	<path fill="none" stroke="#0A307C" stroke-linecap="round" stroke-linejoin="round" stroke-miterlimit="10" d="M110.81,127.48
		c0,0,2.9-2.9,5.81,0"/>
	<path fill="none" stroke="#0A307C" stroke-linecap="round" stroke-linejoin="round" stroke-miterlimit="10" d="M102.1,140.7
		c0,0,2.9,2.9,5.81,0"/>
	<path fill="#C5ECFF" d="M95.29,176.83h-9.61c-0.55,0-1-0.45-1-1v-3.81c0-0.55,0.45-1,1-1h9.61c0.55,0,1,0.45,1,1v3.81
		C96.29,176.38,95.84,176.83,95.29,176.83z"/>
	<g>
		<circle fill="#0A307C" cx="105" cy="179.73" r="1.45"/>
	</g>
	<g>
		<circle fill="#0A307C" cx="105" cy="188.44" r="1.45"/>
	</g>
	<path fill="none" stroke="#0A307C" stroke-linecap="round" stroke-linejoin="round" stroke-miterlimit="10" d="M105,107.15
		c0,0,8.71,8.71,17.42,8.71"/>
	<path fill="none" stroke="#0A307C" stroke-linecap="round" stroke-linejoin="round" stroke-miterlimit="10" d="M99.19,162.31"/>
	<g>
		<path fill="#C5ECFF" d="M43.12,172.56h-8.59c-0.55,0-1-0.45-1-1v-3.29c0-0.55,0.45-1,1-1h8.59c0.55,0,1,0.45,1,1v3.29
			C44.12,172.11,43.67,172.56,43.12,172.56z"/>
		<path fill="none" stroke="#0A307C" stroke-linecap="round" stroke-linejoin="round" stroke-miterlimit="10" d="M75.93,156.35
			c-1.28-0.5-2.63-0.84-4.04-1L60,154.03l-2.65-5.29"/>
		<path fill="none" stroke="#0A307C" stroke-linecap="round" stroke-linejoin="round" stroke-miterlimit="10" d="M46.76,148.74
			l-2.65,5.29l-11.89,1.32c-7.06,0.78-12.74,6.17-13.91,13.17L15,188.44h46.47"/>
		
			<line fill="none" stroke="#0A307C" stroke-linecap="round" stroke-linejoin="round" stroke-miterlimit="10" x1="30.88" y1="188.44" x2="30.88" y2="177.86"/>
		<path fill="none" stroke="#0A307C" stroke-linecap="round" stroke-linejoin="round" stroke-miterlimit="10" d="M67.94,127.56v2.65
			c0,10.23-7.11,18.53-15.88,18.53s-15.88-8.3-15.88-18.53v-2.65"/>
		<path fill="none" stroke="#0A307C" stroke-linecap="round" stroke-linejoin="round" stroke-miterlimit="10" d="M41.47,127.56
			c0,0,2.65-2.65,5.29,0"/>
		<path fill="none" stroke="#0A307C" stroke-linecap="round" stroke-linejoin="round" stroke-miterlimit="10" d="M57.35,127.56
			c0,0,2.65-2.65,5.29,0"/>
		<path fill="none" stroke="#0A307C" stroke-linecap="round" stroke-linejoin="round" stroke-miterlimit="10" d="M49.41,140.8
			c0,0,5.29,2.65,7.94-2.65"/>
		<path fill="none" stroke="#0A307C" stroke-linecap="round" stroke-linejoin="round" stroke-miterlimit="10" d="M46.76,159.33"/>
		<path fill="none" stroke="#0A307C" stroke-linecap="round" stroke-linejoin="round" stroke-miterlimit="10" d="M36.18,132.86
			c0,0-2.65-12.51-2.65-18.77c0-12.51,7.94-15.64,15.88-15.64c5.29,0,10.59,3.13,10.59,3.13c7.94-3.13,10.59,0,10.59,12.51
			c0,6.26-2.65,18.77-2.65,18.77"/>
		<path fill="none" stroke="#0A307C" stroke-linecap="round" stroke-linejoin="round" stroke-miterlimit="10" d="M67.94,127.56
			c0,0,0-5.82-1.66-10.81c-0.45-1.36-1.87-2.12-3.25-1.73c-2.75,0.78-7.45,1.96-10.97,1.96s-8.23-1.17-10.97-1.96
			c-1.37-0.39-2.8,0.38-3.25,1.73c-1.66,5-1.66,10.81-1.66,10.81"/>
		<polyline fill="none" stroke="#0A307C" stroke-linecap="round" stroke-linejoin="round" stroke-miterlimit="10" points="
			44.12,154.03 52.06,159.33 60,154.03 		"/>
		<polyline fill="none" stroke="#0A307C" stroke-linecap="round" stroke-linejoin="round" stroke-miterlimit="10" points="
			52.06,159.33 49.41,164.62 37.14,154.81 		"/>
		<polyline fill="none" stroke="#0A307C" stroke-linecap="round" stroke-linejoin="round" stroke-miterlimit="10" points="
			52.06,159.33 54.71,164.62 66.97,154.81 		"/>
		
			<line fill="none" stroke="#0A307C" stroke-linecap="round" stroke-linejoin="round" stroke-miterlimit="10" x1="54.71" y1="164.62" x2="54.71" y2="188.44"/>
		
			<line fill="none" stroke="#0A307C" stroke-linecap="round" stroke-linejoin="round" stroke-miterlimit="10" x1="49.41" y1="188.44" x2="49.41" y2="164.62"/>
	</g>
	<path fill="#C5ECFF" d="M150,168.72v2.4c0,0.8-0.65,1.45-1.45,1.45h-3.59l-0.1-0.64c-0.28-1.63-0.73-3.19-1.36-4.66h5.05
		C149.35,167.26,150,167.92,150,168.72z"/>
	<path fill="none" stroke="#0A307C" stroke-linecap="round" stroke-linejoin="round" stroke-miterlimit="10" d="M148.58,188.44H195
		l-3.32-19.92c-1.17-7.01-6.85-12.39-13.91-13.17l-11.89-1.32l-2.65-5.29"/>
	<path fill="none" stroke="#0A307C" stroke-linecap="round" stroke-linejoin="round" stroke-miterlimit="10" d="M152.65,148.74
		l-2.65,5.29l-11.89,1.32c-1.42,0.16-2.79,0.5-4.08,1.01"/>
	
		<line fill="none" stroke="#0A307C" stroke-linecap="round" stroke-linejoin="round" stroke-miterlimit="10" x1="179.12" y1="188.44" x2="179.12" y2="177.86"/>
	<path fill="none" stroke="#0A307C" stroke-linecap="round" stroke-linejoin="round" stroke-miterlimit="10" d="M173.82,127.56v2.65
		c0,10.23-7.11,18.53-15.88,18.53s-15.88-8.3-15.88-18.53v-2.65"/>
	<path fill="none" stroke="#0A307C" stroke-linecap="round" stroke-linejoin="round" stroke-miterlimit="10" d="M147.35,127.56
		c0,0,2.65-2.65,5.29,0"/>
	<path fill="none" stroke="#0A307C" stroke-linecap="round" stroke-linejoin="round" stroke-miterlimit="10" d="M163.24,127.56
		c0,0,2.65-2.65,5.29,0"/>
	<path fill="none" stroke="#0A307C" stroke-linecap="round" stroke-linejoin="round" stroke-miterlimit="10" d="M155.29,140.8
		c0,0,5.29,2.65,7.94-2.65"/>
	<path fill="none" stroke="#0A307C" stroke-linecap="round" stroke-linejoin="round" stroke-miterlimit="10" d="M152.65,159.33"/>
	<path fill="none" stroke="#0A307C" stroke-linecap="round" stroke-linejoin="round" stroke-miterlimit="10" d="M142.06,132.86
		c0,0-2.65-12.51-2.65-18.77c0-12.51,7.94-15.64,15.88-15.64c5.29,0,10.59,3.13,10.59,3.13c7.94-3.13,10.59,0,10.59,12.51
		c0,6.26-2.65,18.77-2.65,18.77"/>
	<path fill="none" stroke="#0A307C" stroke-linecap="round" stroke-linejoin="round" stroke-miterlimit="10" d="M173.82,127.56
		c0,0,0-5.82-1.66-10.81c-0.45-1.36-1.87-2.12-3.25-1.73c-2.75,0.78-7.45,1.96-10.97,1.96s-8.23-1.17-10.97-1.96
		c-1.37-0.39-2.8,0.38-3.25,1.73c-1.66,5-1.66,10.81-1.66,10.81"/>
	<polyline fill="none" stroke="#0A307C" stroke-linecap="round" stroke-linejoin="round" stroke-miterlimit="10" points="
		150,154.03 157.94,159.33 165.88,154.03 	"/>
	<polyline fill="none" stroke="#0A307C" stroke-linecap="round" stroke-linejoin="round" stroke-miterlimit="10" points="
		157.94,159.33 155.29,164.62 143.03,154.81 	"/>
	<polyline fill="none" stroke="#0A307C" stroke-linecap="round" stroke-linejoin="round" stroke-miterlimit="10" points="
		157.94,159.33 160.59,164.62 172.86,154.81 	"/>
	
		<line fill="none" stroke="#0A307C" stroke-linecap="round" stroke-linejoin="round" stroke-miterlimit="10" x1="160.59" y1="164.62" x2="160.59" y2="188.44"/>
	
		<line fill="none" stroke="#0A307C" stroke-linecap="round" stroke-linejoin="round" stroke-miterlimit="10" x1="155.29" y1="188.44" x2="155.29" y2="164.62"/>
	<line fill="none" stroke="#3BABFF" stroke-miterlimit="10" x1="105" y1="75.22" x2="105" y2="66.51"/>
	<path fill="none" stroke="#3BABFF" stroke-miterlimit="10" d="M52.74,92.64V81.02c0-3.21,2.6-5.81,5.81-5.81H105"/>
	<path fill="none" stroke="#3BABFF" stroke-miterlimit="10" d="M157.26,92.64V81.02c0-3.21-2.6-5.81-5.81-5.81H105"/>
	<circle opacity="0.1" fill="#3BABFF" cx="105" cy="43.28" r="29.03"/>
	<circle fill="#3BABFF" cx="105" cy="43.28" r="23.23"/>
	<g>
		<path fill="#FFFFFF" d="M107.42,28.77v2.66c1.55,0.31,2.98,0.92,4.25,1.77l1.89-1.89l3.42,3.42l-1.89,1.89
			c0.85,1.27,1.45,2.7,1.77,4.25h2.66v4.84h-2.66c-0.31,1.55-0.92,2.98-1.77,4.25l1.89,1.89l-3.42,3.42l-1.89-1.89
			c-1.27,0.85-2.7,1.45-4.25,1.77v2.66h-4.84v-2.66c-1.55-0.31-2.98-0.92-4.25-1.77l-1.89,1.89l-3.42-3.42l1.89-1.89
			c-0.85-1.27-1.45-2.7-1.77-4.25h-2.66v-4.84h2.66c0.31-1.55,0.92-2.98,1.77-4.25l-1.89-1.89l3.42-3.42l1.89,1.89
			c1.27-0.85,2.7-1.45,4.25-1.77v-2.66H107.42 M107.42,27.77h-4.84c-0.55,0-1,0.45-1,1v1.87c-1.09,0.29-2.13,0.72-3.1,1.29
			l-1.33-1.33c-0.2-0.2-0.45-0.29-0.71-0.29s-0.51,0.1-0.71,0.29l-3.42,3.42c-0.19,0.19-0.29,0.44-0.29,0.71
			c0,0.27,0.11,0.52,0.29,0.71l1.33,1.33c-0.56,0.97-1,2.01-1.29,3.1h-1.87c-0.55,0-1,0.45-1,1v4.84c0,0.55,0.45,1,1,1h1.87
			c0.29,1.09,0.72,2.13,1.29,3.1l-1.33,1.33c-0.19,0.19-0.29,0.44-0.29,0.71c0,0.27,0.11,0.52,0.29,0.71l3.42,3.42
			c0.19,0.19,0.44,0.29,0.71,0.29s0.52-0.11,0.71-0.29l1.33-1.33c0.97,0.56,2.01,1,3.1,1.29v1.87c0,0.55,0.45,1,1,1h4.84
			c0.55,0,1-0.45,1-1v-1.87c1.09-0.29,2.13-0.72,3.1-1.29l1.33,1.33c0.19,0.19,0.44,0.29,0.71,0.29s0.52-0.11,0.71-0.29l3.42-3.42
			c0.19-0.19,0.29-0.44,0.29-0.71c0-0.27-0.11-0.52-0.29-0.71l-1.33-1.33c0.56-0.97,1-2.01,1.29-3.1h1.87c0.55,0,1-0.45,1-1v-4.84
			c0-0.55-0.45-1-1-1h-1.87c-0.29-1.09-0.72-2.13-1.29-3.1l1.33-1.33c0.19-0.19,0.29-0.44,0.29-0.71c0-0.27-0.11-0.52-0.29-0.71
			l-3.42-3.42c-0.2-0.2-0.45-0.29-0.71-0.29s-0.51,0.1-0.71,0.29l-1.33,1.33c-0.97-0.56-2.01-1-3.1-1.29v-1.87
			C108.42,28.21,107.97,27.77,107.42,27.77L107.42,27.77z"/>
	</g>
	<g>
		<path fill="#FFFFFF" d="M105,35.57c4.25,0,7.71,3.46,7.71,7.71s-3.46,7.71-7.71,7.71s-7.71-3.46-7.71-7.71S100.75,35.57,105,35.57
			 M105,34.57c-4.81,0-8.71,3.9-8.71,8.71s3.9,8.71,8.71,8.71s8.71-3.9,8.71-8.71S109.81,34.57,105,34.57L105,34.57z"/>
	</g>
</g>
</svg>
