<?xml version="1.0" encoding="utf-8"?>
<!-- Generator: Adobe Illustrator 25.4.1, SVG Export Plug-In . SVG Version: 6.00 Build 0)  -->
<svg version="1.1" id="Layer_1" xmlns="http://www.w3.org/2000/svg" xmlns:xlink="http://www.w3.org/1999/xlink" x="0px" y="0px"
	 viewBox="0 0 210 210" enable-background="new 0 0 210 210" xml:space="preserve">
<circle fill="#F4F7FF" cx="105" cy="105" r="65"/>
<g>
	<circle fill="#FFFFFF" cx="168.87" cy="67.26" r="17.42"/>
	<path fill="#FFFFFF" d="M195,99.19v60.97c0,3.21-7.81,5.81-17.42,5.81c-9.61,0-17.42-2.6-17.42-5.81V99.19
		c0-3.21,7.8-5.81,17.42-5.81C187.2,93.39,195,95.99,195,99.19z"/>
	<path fill="#FFFFFF" d="M154.35,142.74v17.42c0,3.21-7.81,5.81-17.42,5.81s-17.42-2.6-17.42-5.81v-17.42
		c0-3.21,7.8-5.81,17.42-5.81S154.35,139.53,154.35,142.74z"/>
	<path fill="#FFFFFF" d="M99.19,145.65H46.94c0-3.21,2.6-5.81,5.81-5.81h8.71v-11.61h23.23v11.61h8.71c1.6,0,3.05,0.65,4.11,1.7
		C98.54,142.6,99.19,144.05,99.19,145.65z"/>
	
		<path fill="#FFFFFF" stroke="#0A307C" stroke-width="1.5" stroke-linecap="round" stroke-linejoin="round" stroke-miterlimit="10" d="
		M131.13,52.74v69.68c0,3.21-2.6,5.81-5.81,5.81H20.81c-3.21,0-5.81-2.6-5.81-5.81V52.74c0-3.21,2.6-5.81,5.81-5.81h104.52
		C128.53,46.94,131.13,49.53,131.13,52.74z"/>
	
		<line fill="none" stroke="#0A307C" stroke-width="1.5" stroke-linecap="round" stroke-linejoin="round" stroke-miterlimit="10" x1="67.26" y1="119.52" x2="78.87" y2="119.52"/>
	
		<line fill="none" stroke="#0A307C" stroke-width="1.5" stroke-linecap="round" stroke-linejoin="round" stroke-miterlimit="10" x1="84.68" y1="139.84" x2="84.68" y2="128.23"/>
	<path fill="none" stroke="#0A307C" stroke-width="1.5" stroke-linecap="round" stroke-linejoin="round" stroke-miterlimit="10" d="
		M99.19,145.65H46.94c0-3.21,2.6-5.81,5.81-5.81h40.65c1.6,0,3.05,0.65,4.11,1.7C98.54,142.6,99.19,144.05,99.19,145.65z"/>
	<path fill="#C5ECFF" d="M35.32,110.81H23.71V59.55c0-0.55,0.45-1,1-1h9.61c0.55,0,1,0.45,1,1V110.81z"/>
	<path fill="#C5ECFF" d="M52.74,110.81H41.13V68.26c0-0.55,0.45-1,1-1h9.61c0.55,0,1,0.45,1,1V110.81z"/>
	<path fill="#C5ECFF" d="M70.16,110.81H58.55V76.97c0-0.55,0.45-1,1-1h9.61c0.55,0,1,0.45,1,1V110.81z"/>
	<path fill="#C5ECFF" d="M87.58,110.81H75.97V85.68c0-0.55,0.45-1,1-1h9.61c0.55,0,1,0.45,1,1V110.81z"/>
	<path fill="#C5ECFF" d="M105,110.81H93.39V94.39c0-0.55,0.45-1,1-1H104c0.55,0,1,0.45,1,1V110.81z"/>
	<path fill="#C5ECFF" d="M122.42,110.81h-11.61v-10.61c0-0.55,0.45-1,1-1h9.61c0.55,0,1,0.45,1,1V110.81z"/>
	
		<line fill="none" stroke="#0A307C" stroke-width="1.5" stroke-linejoin="round" stroke-miterlimit="10" x1="15" y1="110.81" x2="131.13" y2="110.81"/>
	
		<polyline fill="none" stroke="#0A307C" stroke-width="1.5" stroke-linecap="round" stroke-linejoin="round" stroke-miterlimit="10" points="
		26.61,67.26 35.32,67.26 52.74,81.77 70.16,81.77 87.58,99.19 105,99.19 110.81,105 119.52,105 	"/>
	<g>
		<circle fill="#0A307C" cx="23.71" cy="67.26" r="2.9"/>
	</g>
	<g>
		<circle fill="#0A307C" cx="122.42" cy="105" r="2.9"/>
	</g>
	<path fill="#C5ECFF" d="M120.97,67.26h-1.81c-0.28-1.06-0.7-2.08-1.25-2.99l1.29-1.29c0.57-0.57,0.57-1.5,0-2.06l-2.05-2.05
		c-0.57-0.57-1.5-0.57-2.06,0l-1.29,1.29c-0.91-0.55-1.93-0.97-2.99-1.25V57.1c0-0.8-0.65-1.45-1.45-1.45h-2.9
		c-0.8,0-1.45,0.65-1.45,1.45v1.81c-1.06,0.28-2.08,0.7-2.99,1.25l-1.29-1.29c-0.57-0.57-1.5-0.57-2.06,0l-2.05,2.05
		c-0.57,0.57-0.57,1.5,0,2.06l1.29,1.29c-0.55,0.91-0.97,1.93-1.25,2.99h-1.81c-0.8,0-1.45,0.65-1.45,1.45v2.9
		c0,0.8,0.65,1.45,1.45,1.45h1.81c0.28,1.06,0.7,2.08,1.25,2.99l-1.29,1.29c-0.57,0.57-0.57,1.5,0,2.06l2.05,2.05
		c0.57,0.57,1.5,0.57,2.06,0l1.29-1.29c0.91,0.55,1.93,0.97,2.99,1.25v1.81c0,0.8,0.65,1.45,1.45,1.45h2.9
		c0.8,0,1.45-0.65,1.45-1.45v-1.81c1.06-0.28,2.08-0.7,2.99-1.25l1.29,1.29c0.57,0.57,1.5,0.57,2.06,0l2.05-2.05
		c0.57-0.57,0.57-1.5,0-2.06l-1.29-1.29c0.55-0.91,0.97-1.93,1.25-2.99h1.81c0.8,0,1.45-0.65,1.45-1.45v-2.9
		C122.42,67.91,121.77,67.26,120.97,67.26z M107.9,78.87c-4.8,0-8.71-3.9-8.71-8.71c0-4.8,3.9-8.71,8.71-8.71
		c4.8,0,8.71,3.9,8.71,8.71C116.61,74.97,112.71,78.87,107.9,78.87z"/>
	<g>
		
			<ellipse fill="none" stroke="#0A307C" stroke-width="1.5" stroke-linecap="round" stroke-linejoin="round" stroke-miterlimit="10" cx="177.58" cy="99.19" rx="17.42" ry="5.81"/>
		
			<path fill="none" stroke="#0A307C" stroke-width="1.5" stroke-linecap="round" stroke-linejoin="round" stroke-miterlimit="10" d="
			M160.16,107.9c0,3.21,7.8,5.81,17.42,5.81c9.62,0,17.42-2.6,17.42-5.81"/>
		
			<path fill="none" stroke="#0A307C" stroke-width="1.5" stroke-linecap="round" stroke-linejoin="round" stroke-miterlimit="10" d="
			M160.16,116.61c0,3.21,7.8,5.81,17.42,5.81c9.62,0,17.42-2.6,17.42-5.81"/>
		
			<path fill="none" stroke="#0A307C" stroke-width="1.5" stroke-linecap="round" stroke-linejoin="round" stroke-miterlimit="10" d="
			M160.16,125.32c0,3.21,7.8,5.81,17.42,5.81c9.62,0,17.42-2.6,17.42-5.81"/>
		
			<path fill="none" stroke="#0A307C" stroke-width="1.5" stroke-linecap="round" stroke-linejoin="round" stroke-miterlimit="10" d="
			M160.16,134.03c0,3.21,7.8,5.81,17.42,5.81c9.62,0,17.42-2.6,17.42-5.81"/>
		
			<path fill="none" stroke="#0A307C" stroke-width="1.5" stroke-linecap="round" stroke-linejoin="round" stroke-miterlimit="10" d="
			M160.16,142.74c0,3.21,7.8,5.81,17.42,5.81c9.62,0,17.42-2.6,17.42-5.81"/>
		
			<path fill="none" stroke="#0A307C" stroke-width="1.5" stroke-linecap="round" stroke-linejoin="round" stroke-miterlimit="10" d="
			M160.16,151.45c0,3.21,7.8,5.81,17.42,5.81c9.62,0,17.42-2.6,17.42-5.81"/>
		
			<path fill="none" stroke="#0A307C" stroke-width="1.5" stroke-linecap="round" stroke-linejoin="round" stroke-miterlimit="10" d="
			M160.16,160.16c0,3.21,7.81,5.81,17.42,5.81s17.42-2.6,17.42-5.81"/>
		
			<polyline fill="none" stroke="#0A307C" stroke-width="1.5" stroke-linecap="round" stroke-linejoin="round" stroke-miterlimit="10" points="
			160.16,160.16 160.16,151.45 160.16,142.74 160.16,134.03 160.16,125.32 160.16,116.61 160.16,107.9 160.16,99.19 		"/>
		
			<polyline fill="none" stroke="#0A307C" stroke-width="1.5" stroke-linecap="round" stroke-linejoin="round" stroke-miterlimit="10" points="
			195,160.16 195,151.45 195,142.74 195,134.03 195,125.32 195,116.61 195,107.9 195,99.19 		"/>
	</g>
	
		<ellipse fill="none" stroke="#0A307C" stroke-width="1.5" stroke-linecap="round" stroke-linejoin="round" stroke-miterlimit="10" cx="136.94" cy="142.74" rx="17.42" ry="5.81"/>
	<path fill="none" stroke="#0A307C" stroke-width="1.5" stroke-linecap="round" stroke-linejoin="round" stroke-miterlimit="10" d="
		M119.52,151.45c0,3.21,7.8,5.81,17.42,5.81s17.42-2.6,17.42-5.81"/>
	<path fill="none" stroke="#0A307C" stroke-width="1.5" stroke-linecap="round" stroke-linejoin="round" stroke-miterlimit="10" d="
		M119.52,160.16c0,3.21,7.81,5.81,17.42,5.81s17.42-2.6,17.42-5.81"/>
	
		<polyline fill="none" stroke="#0A307C" stroke-width="1.5" stroke-linecap="round" stroke-linejoin="round" stroke-miterlimit="10" points="
		119.52,160.16 119.52,151.45 119.52,142.74 	"/>
	
		<polyline fill="none" stroke="#0A307C" stroke-width="1.5" stroke-linecap="round" stroke-linejoin="round" stroke-miterlimit="10" points="
		154.35,160.16 154.35,151.45 154.35,142.74 	"/>
	
		<circle fill="none" stroke="#0A307C" stroke-width="1.5" stroke-linecap="round" stroke-linejoin="round" stroke-miterlimit="10" cx="168.87" cy="67.26" r="17.42"/>
	<path fill="#3BABFF" d="M174.51,69.81c-0.11-0.38-0.24-0.71-0.39-0.99c-0.15-0.28-0.37-0.56-0.66-0.82
		c-0.29-0.27-0.54-0.48-0.77-0.65c-0.23-0.16-0.54-0.35-0.94-0.55c-0.4-0.2-0.71-0.35-0.95-0.45c-0.23-0.1-0.57-0.24-1.01-0.41
		c-0.39-0.16-0.68-0.27-0.87-0.36c-0.19-0.08-0.44-0.2-0.75-0.35c-0.31-0.15-0.54-0.29-0.7-0.4c-0.15-0.12-0.32-0.26-0.49-0.43
		c-0.17-0.17-0.3-0.35-0.37-0.54c-0.07-0.19-0.11-0.4-0.11-0.62c0-0.59,0.25-1.07,0.75-1.44c0.5-0.37,1.14-0.56,1.93-0.56
		c0.35,0,0.7,0.05,1.06,0.15c0.36,0.1,0.67,0.21,0.93,0.34c0.26,0.13,0.5,0.26,0.73,0.42c0.23,0.15,0.39,0.27,0.49,0.34
		c0.1,0.08,0.16,0.13,0.18,0.16c0.11,0.09,0.22,0.12,0.34,0.09c0.12-0.01,0.22-0.08,0.29-0.21l1.01-1.9
		c0.1-0.17,0.08-0.34-0.06-0.49c-0.05-0.05-0.11-0.11-0.19-0.18c-0.07-0.07-0.24-0.19-0.49-0.38c-0.25-0.18-0.51-0.34-0.79-0.49
		c-0.28-0.14-0.64-0.29-1.08-0.43c-0.44-0.15-0.9-0.25-1.38-0.3v-2.29c0-0.12-0.04-0.22-0.11-0.3c-0.07-0.08-0.17-0.12-0.29-0.12
		h-1.68c-0.11,0-0.2,0.04-0.28,0.12c-0.08,0.08-0.12,0.18-0.12,0.29v2.34c-1.3,0.26-2.36,0.84-3.17,1.74
		c-0.81,0.9-1.22,1.95-1.22,3.14c0,0.35,0.04,0.69,0.11,1.01c0.07,0.32,0.16,0.61,0.26,0.86c0.1,0.26,0.25,0.51,0.44,0.75
		c0.19,0.25,0.37,0.46,0.54,0.64c0.17,0.18,0.39,0.36,0.67,0.55c0.27,0.19,0.51,0.34,0.7,0.46c0.2,0.12,0.45,0.25,0.78,0.4
		c0.32,0.15,0.58,0.27,0.77,0.34c0.19,0.08,0.44,0.19,0.77,0.32c0.45,0.18,0.78,0.32,1,0.42c0.22,0.1,0.49,0.24,0.82,0.42
		c0.33,0.18,0.57,0.34,0.73,0.49c0.15,0.15,0.29,0.33,0.42,0.55c0.12,0.22,0.19,0.45,0.19,0.69c0,0.68-0.26,1.21-0.77,1.58
		c-0.51,0.37-1.1,0.56-1.77,0.56c-0.31,0-0.61-0.03-0.92-0.1c-1.08-0.22-2.09-0.77-3.02-1.62l-0.03-0.03
		c-0.07-0.1-0.17-0.13-0.3-0.12c-0.13,0.02-0.23,0.07-0.29,0.16l-1.28,1.75c-0.12,0.17-0.12,0.35,0.03,0.53
		c0.04,0.05,0.11,0.13,0.22,0.23c0.1,0.1,0.3,0.27,0.58,0.49c0.28,0.22,0.59,0.43,0.92,0.62c0.33,0.19,0.75,0.39,1.26,0.58
		c0.51,0.19,1.04,0.32,1.59,0.4v2.27c0,0.11,0.04,0.21,0.12,0.29c0.08,0.08,0.17,0.12,0.28,0.12h1.68c0.12,0,0.21-0.04,0.29-0.12
		c0.07-0.08,0.11-0.18,0.11-0.3v-2.27c1.32-0.22,2.39-0.82,3.22-1.77c0.82-0.96,1.24-2.1,1.24-3.42
		C174.68,70.6,174.62,70.19,174.51,69.81L174.51,69.81z M174.51,69.81"/>
	<polygon fill="#3BABFF" points="151.45,52.74 147.1,58.55 142.74,52.74 145.65,52.74 145.65,44.03 148.55,44.03 148.55,52.74 	"/>
	
		<line fill="none" stroke="#0A307C" stroke-width="1.5" stroke-linecap="round" stroke-linejoin="round" stroke-miterlimit="10" x1="61.45" y1="139.84" x2="61.45" y2="128.23"/>
</g>
</svg>
