<?xml version="1.0" encoding="utf-8"?>
<!-- Generator: Adobe Illustrator 25.4.1, SVG Export Plug-In . SVG Version: 6.00 Build 0)  -->
<svg version="1.1" id="Layer_1" xmlns="http://www.w3.org/2000/svg" xmlns:xlink="http://www.w3.org/1999/xlink" x="0px" y="0px"
	 viewBox="0 0 210 210" enable-background="new 0 0 210 210" xml:space="preserve">
<circle fill="#F4F7FF" cx="105" cy="105" r="65"/>
<g>
	<path fill="#FFFFFF" stroke="#0A307C" stroke-width="1.5" stroke-linejoin="round" stroke-miterlimit="10" d="M85.82,66.64V25.33
		c0-3.26,2.64-5.9,5.9-5.9h35.41c3.26,0,5.9,2.64,5.9,5.9v41.31"/>
	
		<line fill="none" stroke="#0A307C" stroke-width="1.5" stroke-linejoin="round" stroke-miterlimit="10" x1="85.82" y1="28.28" x2="133.03" y2="28.28"/>
	<circle fill="#0A307C" cx="109.43" cy="23.85" r="1.48"/>
	<path fill="#C5ECFF" d="M122.7,43.03H96.15c-0.81,0-1.48-0.66-1.48-1.48v-2.95c0-0.81,0.66-1.48,1.48-1.48h26.56
		c0.81,0,1.48,0.66,1.48,1.48v2.95C124.18,42.37,123.52,43.03,122.7,43.03z"/>
	<path fill="#C5ECFF" d="M105,60.74h-8.85c-0.81,0-1.48-0.66-1.48-1.48v-8.85c0-0.81,0.66-1.48,1.48-1.48H105
		c0.81,0,1.48,0.66,1.48,1.48v8.85C106.48,60.07,105.81,60.74,105,60.74z"/>
	<path fill="#C5ECFF" d="M122.7,60.74h-8.85c-0.81,0-1.48-0.66-1.48-1.48v-8.85c0-0.81,0.66-1.48,1.48-1.48h8.85
		c0.81,0,1.48,0.66,1.48,1.48v8.85C124.18,60.07,123.52,60.74,122.7,60.74z"/>
	
		<line fill="none" stroke="#C5ECFF" stroke-width="5" stroke-linecap="round" stroke-miterlimit="10" x1="41.56" y1="105" x2="32.7" y2="105"/>
	
		<line fill="none" stroke="#C5ECFF" stroke-width="5" stroke-linecap="round" stroke-miterlimit="10" x1="38.61" y1="90.25" x2="15" y2="90.25"/>
	
		<line fill="none" stroke="#C5ECFF" stroke-width="5" stroke-linecap="round" stroke-miterlimit="10" x1="41.56" y1="119.75" x2="15" y2="119.75"/>
	
		<line fill="none" stroke="#C5ECFF" stroke-width="5" stroke-linecap="round" stroke-miterlimit="10" x1="35.66" y1="134.51" x2="20.9" y2="134.51"/>
	
		<line fill="none" stroke="#C5ECFF" stroke-width="5" stroke-linecap="round" stroke-miterlimit="10" x1="44.51" y1="149.26" x2="20.9" y2="149.26"/>
	
		<line fill="none" stroke="#C5ECFF" stroke-width="5" stroke-linecap="round" stroke-miterlimit="10" x1="47.46" y1="75.49" x2="29.75" y2="75.49"/>
	
		<path fill="#FFFFFF" stroke="#0A307C" stroke-width="1.5" stroke-linecap="round" stroke-linejoin="round" stroke-miterlimit="10" d="
		M189.1,161.07H71.07c-3.26,0-5.9-2.64-5.9-5.9V72.54c0-3.26,2.64-5.9,5.9-5.9H189.1c3.26,0,5.9,2.64,5.9,5.9v82.62
		C195,158.42,192.36,161.07,189.1,161.07z"/>
	
		<line fill="none" stroke="#0A307C" stroke-width="1.5" stroke-linejoin="round" stroke-miterlimit="10" x1="65.16" y1="81.39" x2="195" y2="81.39"/>
	<circle fill="#0A307C" cx="164.02" cy="74.02" r="1.48"/>
	<circle fill="#0A307C" cx="172.87" cy="74.02" r="1.48"/>
	<circle fill="#0A307C" cx="181.72" cy="74.02" r="1.48"/>
	
		<line fill="none" stroke="#0A307C" stroke-width="1.5" stroke-linecap="round" stroke-linejoin="round" stroke-miterlimit="10" x1="32.7" y1="75.49" x2="59.26" y2="75.49"/>
	
		<line fill="none" stroke="#0A307C" stroke-width="1.5" stroke-linecap="round" stroke-linejoin="round" stroke-miterlimit="10" x1="17.95" y1="90.25" x2="53.36" y2="90.25"/>
	
		<line fill="none" stroke="#0A307C" stroke-width="1.5" stroke-linecap="round" stroke-linejoin="round" stroke-miterlimit="10" x1="41.56" y1="105" x2="47.46" y2="105"/>
	
		<line fill="none" stroke="#0A307C" stroke-width="1.5" stroke-linecap="round" stroke-linejoin="round" stroke-miterlimit="10" x1="35.66" y1="105" x2="38.61" y2="105"/>
	
		<line fill="none" stroke="#0A307C" stroke-width="1.5" stroke-linecap="round" stroke-linejoin="round" stroke-miterlimit="10" x1="15" y1="119.75" x2="50.41" y2="119.75"/>
	
		<line fill="none" stroke="#0A307C" stroke-width="1.5" stroke-linecap="round" stroke-linejoin="round" stroke-miterlimit="10" x1="32.7" y1="134.51" x2="53.36" y2="134.51"/>
	
		<line fill="none" stroke="#0A307C" stroke-width="1.5" stroke-linecap="round" stroke-linejoin="round" stroke-miterlimit="10" x1="23.85" y1="134.51" x2="29.75" y2="134.51"/>
	
		<line fill="none" stroke="#0A307C" stroke-width="1.5" stroke-linecap="round" stroke-linejoin="round" stroke-miterlimit="10" x1="23.85" y1="149.26" x2="59.26" y2="149.26"/>
	<g>
		<path fill="#3BABFF" d="M91.57,104.31h-6.4l-1.21,3.64h-3.88l6.6-17.7h3.38l6.62,17.7H92.8L91.57,104.31z M86.16,101.34h4.43
			l-2.23-6.62L86.16,101.34z"/>
		<path fill="#3BABFF" d="M101.99,101.71v6.24h-3.64v-17.7h6.9c1.33,0,2.49,0.24,3.51,0.72c1,0.49,1.79,1.18,2.33,2.08
			c0.55,0.9,0.81,1.92,0.81,3.05c0,1.74-0.59,3.1-1.79,4.1s-2.83,1.5-4.93,1.5H101.99z M101.99,98.76h3.26
			c0.96,0,1.7-0.22,2.21-0.68c0.52-0.46,0.77-1.11,0.77-1.95c0-0.87-0.25-1.56-0.77-2.11c-0.52-0.55-1.21-0.81-2.11-0.83H102v5.56
			H101.99z"/>
		<path fill="#3BABFF" d="M118.28,107.95h-3.64v-17.7h3.64V107.95z"/>
	</g>
	<path fill="#C5ECFF" d="M174.34,119.75h-17.7c-3.26,0-5.9-2.64-5.9-5.9v-17.7c0-3.26,2.64-5.9,5.9-5.9h17.7
		c3.26,0,5.9,2.64,5.9,5.9v17.7C180.25,117.11,177.6,119.75,174.34,119.75z"/>
	<path fill="#C5ECFF" d="M115.87,119.75H80.46c-0.81,0-1.48-0.66-1.48-1.48v-2.95c0-0.81,0.66-1.48,1.48-1.48h35.41
		c0.81,0,1.48,0.66,1.48,1.48v2.95C117.35,119.09,116.69,119.75,115.87,119.75z"/>
	<path fill="#C5ECFF" d="M115.87,131.56H80.46c-0.81,0-1.48-0.66-1.48-1.48v-2.95c0-0.81,0.66-1.48,1.48-1.48h35.41
		c0.81,0,1.48,0.66,1.48,1.48v2.95C117.35,130.89,116.69,131.56,115.87,131.56z"/>
	<path fill="#C5ECFF" d="M115.87,143.36H80.46c-0.81,0-1.48-0.66-1.48-1.48v-2.95c0-0.81,0.66-1.48,1.48-1.48h35.41
		c0.81,0,1.48,0.66,1.48,1.48v2.95C117.35,142.7,116.69,143.36,115.87,143.36z"/>
	<path fill="#C5ECFF" d="M178.77,131.56h-35.41c-0.81,0-1.48-0.66-1.48-1.48v-2.95c0-0.81,0.66-1.48,1.48-1.48h35.41
		c0.81,0,1.48,0.66,1.48,1.48v2.95C180.25,130.89,179.58,131.56,178.77,131.56z"/>
	<path fill="#C5ECFF" d="M178.77,143.36h-35.41c-0.81,0-1.48-0.66-1.48-1.48v-2.95c0-0.81,0.66-1.48,1.48-1.48h35.41
		c0.81,0,1.48,0.66,1.48,1.48v2.95C180.25,142.7,179.58,143.36,178.77,143.36z"/>
	
		<circle fill="#FFFFFF" stroke="#0A307C" stroke-width="1.5" stroke-linecap="round" stroke-linejoin="round" stroke-miterlimit="10" cx="130.08" cy="149.26" r="41.31"/>
	<path fill="none" stroke="#0A307C" stroke-width="1.5" stroke-linecap="round" stroke-linejoin="round" stroke-miterlimit="10" d="
		M141.1,128.37c-1.28-0.68-2.64-1.24-4.06-1.68c-0.63-0.19-1.06-0.75-1.06-1.42v-4.04c0-0.81-0.66-1.48-1.48-1.48h-8.85
		c-0.81,0-1.48,0.66-1.48,1.48v4.06c0,0.66-0.44,1.22-1.06,1.42c-1.42,0.44-2.77,1-4.06,1.68c-0.58,0.31-1.28,0.22-1.76-0.25
		l-2.86-2.86c-0.58-0.58-1.5-0.58-2.08,0l-6.27,6.27c-0.58,0.58-0.58,1.5,0,2.08l2.86,2.86c0.47,0.47,0.55,1.18,0.25,1.76
		c-0.68,1.28-1.24,2.64-1.68,4.06c-0.19,0.63-0.75,1.06-1.42,1.06h-4.06c-0.81,0-1.48,0.66-1.48,1.48v8.85
		c0,0.81,0.66,1.48,1.48,1.48h4.06c0.66,0,1.22,0.44,1.42,1.06c0.44,1.42,1,2.77,1.68,4.06c0.31,0.58,0.22,1.28-0.25,1.76
		l-2.86,2.86c-0.58,0.58-0.58,1.5,0,2.08l6.27,6.27c0.58,0.58,1.5,0.58,2.08,0l2.86-2.86c0.47-0.47,1.18-0.55,1.76-0.25
		c1.28,0.68,2.64,1.24,4.06,1.68c0.63,0.19,1.06,0.75,1.06,1.42v4.06c0,0.81,0.66,1.48,1.48,1.48h8.85c0.81,0,1.48-0.66,1.48-1.48
		v-4.06c0-0.66,0.44-1.22,1.06-1.42c1.42-0.44,2.77-1,4.06-1.68c0.58-0.31,1.28-0.22,1.76,0.25l2.86,2.86c0.58,0.58,1.5,0.58,2.08,0
		l6.27-6.27c0.58-0.58,0.58-1.5,0-2.08l-2.86-2.86c-0.47-0.47-0.55-1.18-0.25-1.76c0.68-1.28,1.24-2.64,1.68-4.06
		c0.19-0.63,0.75-1.06,1.42-1.06h4.06c0.81,0,1.48-0.66,1.48-1.48v-8.85c0-0.81-0.66-1.48-1.48-1.48h-4.06
		c-0.66,0-1.22-0.44-1.42-1.06c-0.44-1.42-1-2.77-1.68-4.06c-0.31-0.58-0.22-1.28,0.25-1.76l2.86-2.86c0.58-0.58,0.58-1.5,0-2.08
		l-6.27-6.27c-0.58-0.58-1.5-0.58-2.08,0l-2.86,2.86C142.4,128.59,141.69,128.68,141.1,128.37z"/>
	
		<circle fill="none" stroke="#0A307C" stroke-width="1.5" stroke-linecap="round" stroke-linejoin="round" stroke-miterlimit="10" cx="130.08" cy="149.26" r="17.7"/>
	<circle fill="#C5ECFF" cx="130.08" cy="149.26" r="2.95"/>
	
		<polyline fill="none" stroke="#0A307C" stroke-width="1.5" stroke-linecap="round" stroke-linejoin="round" stroke-miterlimit="10" points="
		130.08,137.46 130.08,149.26 138.93,143.36 	"/>
</g>
</svg>
